<?xml version="1.0" encoding="UTF-8"?>
<!DOCTYPE svg PUBLIC "-//W3C//DTD SVG 1.1//EN" "http://www.w3.org/Graphics/SVG/1.1/DTD/svg11.dtd">
<svg xmlns="http://www.w3.org/2000/svg" version="1.1" width="4106px" height="3545px" style="shape-rendering:geometricPrecision; text-rendering:geometricPrecision; image-rendering:optimizeQuality; fill-rule:evenodd; clip-rule:evenodd" xmlns:xlink="http://www.w3.org/1999/xlink">
<g><path style="opacity:1" fill="#2d2c2b" d="M 61.5,-0.5 C 962.833,-0.5 1864.17,-0.5 2765.5,-0.5C 2799.44,5.06881 2819.94,24.7355 2827,58.5C 2827.67,400.833 2827.67,743.167 2827,1085.5C 2782.63,1130.03 2738.13,1174.37 2693.5,1218.5C 2691.83,857.432 2690.83,496.765 2690.5,136.5C 1839.17,136.5 987.833,136.5 136.5,136.5C 135.5,1226.67 135.167,2317 135.5,3407.5C 987.333,3407.83 1839,3407.5 2690.5,3406.5C 2690.33,3105.5 2690.5,2804.5 2691,2503.5C 2718.37,2475.97 2745.87,2448.63 2773.5,2421.5C 2789.25,2407.25 2804.58,2392.42 2819.5,2377C 2819.27,2376.6 2818.94,2376.43 2818.5,2376.5C 2820.81,2373.52 2823.48,2370.85 2826.5,2368.5C 2827.67,2740.83 2827.83,3113.17 2827,3485.5C 2818.88,3521.79 2796.38,3541.46 2759.5,3544.5C 1861.83,3544.5 964.167,3544.5 66.5,3544.5C 30.9594,3540.96 8.62609,3521.96 -0.5,3487.5C -0.5,2343.83 -0.5,1200.17 -0.5,56.5C 7.38655,23.614 28.0532,4.61395 61.5,-0.5 Z"/></g>
<g><path style="opacity:0.409" fill="#2c2c2a" d="M 2693.5,1218.5 C 2693.19,1219.48 2692.52,1220.14 2691.5,1220.5C 2690.5,859.167 2690.17,497.834 2690.5,136.5C 2690.83,496.765 2691.83,857.432 2693.5,1218.5 Z"/></g>
<g><path style="opacity:0.105" fill="#282828" d="M 136.5,136.5 C 136.5,1226.5 136.5,2316.5 136.5,3406.5C 987.833,3406.5 1839.17,3406.5 2690.5,3406.5C 1839,3407.5 987.333,3407.83 135.5,3407.5C 135.167,2317 135.5,1226.67 136.5,136.5 Z"/></g>
<g><path style="opacity:0.999" fill="#2d2c2b" d="M 993.5,506.5 C 993.167,579.17 993.5,651.836 994.5,724.5C 995.107,724.376 995.44,724.043 995.5,723.5C 1119.3,599.201 1243.3,475.035 1367.5,351C 1399.33,327.356 1430.67,328.022 1461.5,353C 1692,583.5 1922.5,814 2153,1044.5C 2170.27,1064.27 2175.61,1086.93 2169,1112.5C 2155.42,1148.04 2129.59,1163.88 2091.5,1160C 2078.86,1157.35 2067.53,1152.01 2057.5,1144C 1842.67,929.167 1627.83,714.333 1413,499.5C 1197.17,715.333 981.333,931.167 765.5,1147C 744.402,1161.44 721.735,1164.44 697.5,1156C 662.124,1138.41 648.957,1110.24 658,1071.5C 660.865,1062.1 665.531,1053.77 672,1046.5C 733.333,985.167 794.667,923.833 856,862.5C 856.333,744.167 856.667,625.833 857,507.5C 902.428,506.503 947.928,506.17 993.5,506.5 Z"/></g>
<g><path style="opacity:0.997" fill="#2d2c2b" d="M 4105.5,892.5 C 4105.5,898.167 4105.5,903.833 4105.5,909.5C 4103.13,924.237 4096.97,937.237 4087,948.5C 4007,1028.5 3927,1108.5 3847,1188.5C 3846.33,1189.17 3846.33,1189.83 3847,1190.5C 3853.7,1197.04 3860.2,1203.7 3866.5,1210.5C 3909.63,1255.13 3953.63,1299.63 3998.5,1344C 3999.09,1344.46 3999.76,1344.63 4000.5,1344.5C 4013.72,1357.62 4020.39,1373.62 4020.5,1392.5C 4020.13,1408.89 4014.97,1423.56 4005,1436.5C 3767.17,1674.33 3529.33,1912.17 3291.5,2150C 3263,2171.02 3234,2171.68 3204.5,2152C 3180.47,2131.06 3172.97,2105.22 3182,2074.5C 3184.14,2068.89 3186.81,2063.55 3190,2058.5C 3410.97,1836.53 3632.31,1614.86 3854,1393.5C 3854.67,1392.83 3854.67,1392.17 3854,1391.5C 3819,1356.5 3784,1321.5 3749,1286.5C 3262.83,1772.67 2776.67,2258.83 2290.5,2745C 2278.8,2754.25 2265.8,2761.25 2251.5,2766C 2031.66,2859.72 1811.66,2953.06 1591.5,3046C 1563.09,3051.98 1539.26,3044.14 1520,3022.5C 1503.47,2998.9 1501.14,2973.9 1513,2947.5C 1607.28,2726.62 1701.28,2505.62 1795,2284.5C 1797.49,2278.84 1800.49,2273.51 1804,2268.5C 2406.17,1666.33 3008.33,1064.17 3610.5,462C 3631.6,447.557 3654.26,444.557 3678.5,453C 3686.34,456.081 3693.34,460.414 3699.5,466C 3829,595.5 3958.5,725 4088,854.5C 4097.39,865.601 4103.22,878.268 4105.5,892.5 Z M 3651.5,614.5 C 3747.92,709.417 3843.92,804.917 3939.5,901C 3875.99,964.68 3812.32,1028.18 3748.5,1091.5C 3652.68,996.18 3557.01,900.68 3461.5,805C 3525.03,741.632 3588.37,678.132 3651.5,614.5 Z M 3066.5,1774.5 C 2927.5,1912.83 2788.83,2051.5 2650.5,2190.5C 2501.37,2339.13 2352.37,2487.97 2203.5,2637C 2037.03,2708.48 1870.37,2779.14 1703.5,2849C 1774.52,2682.93 1845.36,2516.77 1916,2350.5C 2398.5,1868 2881,1385.5 3363.5,903C 3364.17,902.333 3364.83,902.333 3365.5,903C 3460.83,998.333 3556.17,1093.67 3651.5,1189C 3456.3,1384.03 3261.3,1579.2 3066.5,1774.5 Z"/></g>
<g><path style="opacity:0.086" fill="#232323" d="M 993.5,506.5 C 994.167,578.833 994.833,651.167 995.5,723.5C 995.44,724.043 995.107,724.376 994.5,724.5C 993.5,651.836 993.167,579.17 993.5,506.5 Z"/></g>
<g><path style="opacity:1" fill="#2d2c2b" d="M 915.5,1148.5 C 949.664,1145.87 974.164,1159.87 989,1190.5C 990.741,1195.05 992.074,1199.72 993,1204.5C 994.487,1363.48 994.987,1522.48 994.5,1681.5C 1068.83,1681.5 1143.17,1681.5 1217.5,1681.5C 1217.5,1727.17 1217.5,1772.83 1217.5,1818.5C 1097.17,1818.5 976.833,1818.5 856.5,1818.5C 856.013,1613.82 856.513,1409.15 858,1204.5C 865.567,1173.77 884.733,1155.1 915.5,1148.5 Z"/></g>
<g><path style="opacity:0.998" fill="#2d2c2b" d="M 1897.5,1149.5 C 1936.15,1150.66 1959.98,1169.99 1969,1207.5C 1969.5,1411.17 1969.67,1614.83 1969.5,1818.5C 1761.17,1818.5 1552.83,1818.5 1344.5,1818.5C 1344.5,1617.17 1344.5,1415.83 1344.5,1214.5C 1390.17,1214.5 1435.83,1214.5 1481.5,1214.5C 1481.5,1370.17 1481.5,1525.83 1481.5,1681.5C 1598.5,1681.5 1715.5,1681.5 1832.5,1681.5C 1832.33,1524.83 1832.5,1368.17 1833,1211.5C 1839.39,1174.94 1860.89,1154.27 1897.5,1149.5 Z"/></g>
<g><path style="opacity:0.555" fill="#2d2d29" d="M 3866.5,1210.5 C 3911.5,1254.83 3956.17,1299.5 4000.5,1344.5C 3999.76,1344.63 3999.09,1344.46 3998.5,1344C 3953.63,1299.63 3909.63,1255.13 3866.5,1210.5 Z"/></g>
<g><path style="opacity:0.671" fill="#20201f" d="M 3066.5,1774.5 C 2929.37,1913.13 2791.37,2051.63 2652.5,2190C 2651.91,2190.46 2651.24,2190.63 2650.5,2190.5C 2788.83,2051.5 2927.5,1912.83 3066.5,1774.5 Z"/></g>
<g><path style="opacity:0.996" fill="#2d2c2b" d="M 682.5,2091.5 C 1061.5,2091.17 1440.5,2091.5 1819.5,2092.5C 1786.85,2125.65 1754.01,2158.65 1721,2191.5C 1711.47,2202.72 1703.3,2214.88 1696.5,2228C 1358.83,2228.67 1021.17,2228.67 683.5,2228C 652.651,2223.15 633.151,2205.65 625,2175.5C 619.486,2144.71 629.32,2120.21 654.5,2102C 663.331,2096.78 672.664,2093.28 682.5,2091.5 Z"/></g>
<g><path style="opacity:0.6" fill="#20201f" d="M 2818.5,2376.5 C 2818.94,2376.43 2819.27,2376.6 2819.5,2377C 2804.58,2392.42 2789.25,2407.25 2773.5,2421.5C 2788.17,2406.17 2803.17,2391.17 2818.5,2376.5 Z"/></g>
<g><path style="opacity:0.995" fill="#2d2c2b" d="M 689.5,2501.5 C 985.833,2502.17 1282.17,2502.83 1578.5,2503.5C 1559.92,2548.49 1540.92,2593.32 1521.5,2638C 1242.5,2638.67 963.5,2638.67 684.5,2638C 646.453,2631.25 626.119,2608.58 623.5,2570C 624.203,2541.92 636.869,2521.25 661.5,2508C 670.402,2503.94 679.736,2501.77 689.5,2501.5 Z"/></g>
<g><path style="opacity:0.718" fill="#2d2c2a" d="M 689.5,2501.5 C 986.167,2501.17 1282.83,2501.5 1579.5,2502.5C 1579.38,2503.11 1579.04,2503.44 1578.5,2503.5C 1282.17,2502.83 985.833,2502.17 689.5,2501.5 Z"/></g>
<g><path style="opacity:0.998" fill="#2d2c2b" d="M 1404.5,3046.5 C 1167.17,3047.17 929.833,3047.83 692.5,3048.5C 661.998,3047.47 640.498,3033.14 628,3005.5C 616.964,2969.6 626.797,2941.1 657.5,2920C 665.102,2916.13 673.102,2913.47 681.5,2912C 922.833,2911.33 1164.17,2911.33 1405.5,2912C 1392.34,2944.43 1388.84,2977.93 1395,3012.5C 1397.26,3024.11 1400.43,3035.44 1404.5,3046.5 Z"/></g>
<g><path style="opacity:0.298" fill="#2c2c29" d="M 1404.5,3046.5 C 1405.04,3046.56 1405.38,3046.89 1405.5,3047.5C 1167.83,3048.5 930.168,3048.83 692.5,3048.5C 929.833,3047.83 1167.17,3047.17 1404.5,3046.5 Z"/></g>
</svg>
