<?xml version="1.0" encoding="UTF-8"?>
<!DOCTYPE svg PUBLIC "-//W3C//DTD SVG 1.1//EN" "http://www.w3.org/Graphics/SVG/1.1/DTD/svg11.dtd">
<!-- Creator: CorelDRAW 2021.5 -->
<svg xmlns="http://www.w3.org/2000/svg" xml:space="preserve" width="304.484mm" height="300mm" version="1.1" style="shape-rendering:geometricPrecision; text-rendering:geometricPrecision; image-rendering:optimizeQuality; fill-rule:evenodd; clip-rule:evenodd"
viewBox="0 0 10268.45 10117.26"
 xmlns:xlink="http://www.w3.org/1999/xlink"
 xmlns:xodm="http://www.corel.com/coreldraw/odm/2003">
 <defs>
  <style type="text/css">
   <![CDATA[
    .fil0 {fill:#FFFFFF;fill-rule:nonzero}
   ]]>
  </style>
 </defs>
 <g id="Layer_x0020_1">
  <metadata id="CorelCorpID_0Corel-Layer"/>
  <path class="fil0" d="M8930.69 8732.9l642.96 1113.57c49.92,86.17 20.5,196.56 -65.67,246.48 -86.17,49.92 -196.56,20.49 -246.48,-65.68l-610.5 -1057.34c98,-73.4 191.39,-152.57 279.69,-237.04zm-3272.87 -5242.62c0,-99.84 80.96,-180.8 180.8,-180.8 99.84,0 180.8,80.96 180.8,180.8l0 451.91c0,99.84 -80.96,180.8 -180.8,180.8 -99.84,0 -180.8,-80.96 -180.8,-180.8l0 -451.91zm1506.43 0c0,-99.84 80.96,-180.8 180.8,-180.8 99.84,0 180.8,80.96 180.8,180.8l0 451.91c0,99.84 -80.96,180.8 -180.8,180.8 -99.84,0 -180.8,-80.96 -180.8,-180.8l0 -451.91zm-753.22 -753.22c0,-99.84 80.96,-180.8 180.8,-180.8 99.84,0 180.8,80.96 180.8,180.8l0 451.95c0,99.84 -80.96,180.8 -180.8,180.8 -99.84,0 -180.8,-80.96 -180.8,-180.8l0 -451.95zm-790.71 -485.05c-99.84,0 -180.8,-80.96 -180.8,-180.8 0,-99.84 80.96,-180.8 180.8,-180.8l1942.84 0c99.84,0 180.8,80.96 180.8,180.8 0,99.84 -80.96,180.8 -180.8,180.8l-1942.84 0zm790.71 -658.33c0,-439.91 178.45,-838.45 466.86,-1126.86 288.37,-288.37 686.81,-466.82 1126.81,-466.82 440,0 838.45,178.45 1126.81,466.82 288.41,288.41 466.86,686.94 466.86,1126.86l0 3768.05 -361.6 0 0 -3768.05c0,-340.16 -137.97,-648.34 -360.87,-871.24 -222.86,-222.86 -530.95,-360.83 -871.2,-360.83 -340.25,0 -648.34,137.97 -871.2,360.83 -222.9,222.9 -360.87,531.08 -360.87,871.24l-361.6 0zm-2792.99 6474.87l3213.31 0c99.84,0 180.8,80.96 180.8,180.8 0,99.84 -80.96,180.8 -180.8,180.8l-3213.31 0 -180.8 0c-521.6,0 -994.82,-212.4 -1337.63,-555.12 -343.32,-343.2 -555.98,-816.63 -555.98,-1338.02l0 -180.8 361.6 0 0 180.8c0,422.53 171.62,805.44 448.62,1082.4 277.35,277.26 660.6,449.14 1083.39,449.14l180.8 0zm-3437.24 -2074.41c-99.84,0 -180.8,-80.96 -180.8,-180.8 0,-99.84 80.96,-180.8 180.8,-180.8l9906.85 0c99.84,0 180.8,80.96 180.8,180.8 0,99.84 -80.96,180.8 -180.8,180.8l-489.28 0 0 542.7c0,763.98 -309.76,1455.79 -810.52,1956.51 -500.72,500.76 -1192.49,810.52 -1956.51,810.52l-3394.11 0c-764.06,0 -1455.83,-309.76 -1956.55,-810.48 -500.72,-500.72 -810.48,-1192.57 -810.48,-1956.55l0 -542.7 -489.4 0zm9055.98 0l-8204.97 0 0 542.7c0,664.27 269.28,1265.72 704.49,1700.94 435.21,435.22 1036.67,704.49 1700.94,704.49l3394.11 0c664.27,0 1265.64,-269.24 1700.9,-704.54 435.3,-435.26 704.53,-1036.63 704.53,-1700.89l0 -542.7zm-7619.19 2975.8l-610.51 1057.34c-49.92,86.17 -160.3,115.6 -246.47,65.68 -86.17,-49.92 -115.59,-160.3 -65.67,-246.48l642.96 -1113.53c88.31,84.47 181.7,163.59 279.7,237z"/>
 </g>
</svg>
