<?xml version="1.0" encoding="UTF-8"?>
<!DOCTYPE svg PUBLIC "-//W3C//DTD SVG 1.1//EN" "http://www.w3.org/Graphics/SVG/1.1/DTD/svg11.dtd">
<!-- Creator: CorelDRAW 2021.5 -->
<svg xmlns="http://www.w3.org/2000/svg" xml:space="preserve" width="391.362mm" height="300.001mm" version="1.1" style="shape-rendering:geometricPrecision; text-rendering:geometricPrecision; image-rendering:optimizeQuality; fill-rule:evenodd; clip-rule:evenodd"
viewBox="0 0 24304.6 18630.84"
 xmlns:xlink="http://www.w3.org/1999/xlink"
 xmlns:xodm="http://www.corel.com/coreldraw/odm/2003">
 <defs>
  <style type="text/css">
   <![CDATA[
    .fil0 {fill:#FFFFFF;fill-rule:nonzero}
   ]]>
  </style>
 </defs>
 <g id="Layer_x0020_1">
  <metadata id="CorelCorpID_0Corel-Layer"/>
  <path class="fil0" d="M23547.72 11879.81l-22790.93 0 0 2639.37 22790.93 0 0 -2639.37zm-10596.36 -4605.34l0 -2284.84c0,-289.38 118.32,-552.4 309.58,-743.47 190.26,-190.18 452.93,-307.97 742.22,-307.97l4688.18 0c289.29,0 551.95,117.79 742.31,308.06 191.25,190.98 309.58,454 309.58,743.38l0 2284.84 -756.79 0 0 -2284.84c0,-82.31 -32.53,-156.13 -84.9,-208.41 -53.27,-53.17 -127.62,-86.24 -210.2,-86.24l-4688.18 0c-82.58,0 -156.94,32.98 -210.11,86.16 -52.46,52.37 -84.9,126.1 -84.9,208.5l0 2284.84 -756.79 0zm-8241.99 0l0 -2284.84c0,-290.18 117.88,-553.11 308.15,-743.38l25.38 -23.15c188.21,-176.6 440.95,-284.91 718.27,-284.91l4540.64 0c290.27,0 553.2,117.79 743.47,308.06 190.26,190.27 308.05,453.29 308.05,743.38l0 2284.84 -756.78 0 0 -2284.84c0,-81.42 -32.98,-155.14 -86.24,-208.41 -53.27,-53.27 -127,-86.24 -208.5,-86.24l-4540.64 0c-75.78,0 -144.69,27.88 -196.7,73.64l-11.97 12.6c-53.27,53.27 -86.34,127.09 -86.34,208.41l0 2284.84 -756.78 0zm16631.54 0l0 -5718.8c0,-220.74 -89.46,-420.58 -233.88,-565 -144.42,-144.43 -344.25,-233.88 -565,-233.88 -197.69,0 -377.23,69.89 -514.86,185.62 -140.76,118.32 -240.14,285.18 -272.93,475 -24.22,140.4 -93.22,267.94 -193.93,360.25 -105.73,97.24 -242.64,156.4 -398.23,156.4l-13871.61 0c-155.41,0 -292.42,-59.07 -398.23,-156.4 -100.72,-92.32 -169.71,-219.85 -193.93,-360.25 -32.8,-189.82 -132.27,-356.67 -272.93,-475 -137.72,-115.83 -317.36,-185.62 -514.86,-185.62 -220.56,0 -420.4,89.46 -564.91,233.97l-16.53 15.55c-134.68,142.28 -217.44,335.68 -217.44,549.36l0 5718.8 -756.79 0 0 -5718.8c0,-416.65 165.34,-796.11 434.07,-1076.29l21.72 -23.59c281.52,-281.52 670.45,-455.79 1099.88,-455.79 379.02,0 728.01,137.63 999.6,365.97 246.75,207.52 428.27,489.75 509.06,811.31l13614.22 0c80.79,-321.56 262.3,-603.88 509.06,-811.31 271.51,-228.34 620.32,-365.97 999.6,-365.97 429.51,0 818.45,174.19 1099.97,455.7 281.52,281.52 455.7,670.45 455.7,1099.97l0 5718.8 -756.78 0zm-221.82 8548.8l0 1251.63c0,220.74 89.46,420.58 233.97,565.08 144.51,144.51 344.52,234.06 565.18,234.06 220.66,0 420.48,-89.46 565,-233.97l16 -15.1c134.95,-143.08 217.89,-336.66 217.89,-550.07l0 -1251.63 756.78 0 0 1251.63c0,417.53 -165.42,796.91 -434.07,1076.64l-21.62 23.51c-281.52,281.51 -670.63,455.78 -1099.97,455.78 -429.33,0 -818.54,-174.27 -1100.15,-455.88 -281.52,-281.52 -455.79,-670.54 -455.79,-1100.06l0 -1251.63 756.79 0zm-19531.51 0l0 1251.63c0,220.74 89.46,420.66 233.97,565.18 144.51,144.51 344.43,233.97 565.18,233.97 221.55,0 421.2,-89.01 564.73,-232.54 144.42,-144.42 233.79,-344.88 233.79,-566.61l0 -1251.63 756.79 0 0 1251.63c0,428.53 -174.19,817.2 -455.61,1098.71 -282.23,282.41 -671.17,457.22 -1099.7,457.22 -429.6,0 -818.63,-174.27 -1100.15,-455.78 -281.52,-281.52 -455.79,-670.55 -455.79,-1100.15l0 -1251.63 756.79 0zm-1587.57 -4321.86l0 -2415.32c0,-375.09 152.19,-715.05 398.15,-961 245.95,-245.95 585.73,-398.23 960.81,-398.23l21586.76 0c374.28,0 714.16,152.82 960.82,399.57 245.86,245.95 398.05,585.46 398.05,959.65l0 2415.32 -0.09 0 0 9.74 0 3386.41c0,208.95 -169.45,378.4 -378.4,378.4l-23547.72 0c-208.94,0 -378.39,-169.45 -378.39,-378.4l0 -3396.16zm756.79 -378.39l22791.02 0 0 -2036.93c0,-167.39 -67.38,-318.69 -176.23,-427.55 -107.96,-108.05 -258.55,-174.9 -425.85,-174.9l-21586.76 0c-166.22,0 -316.9,67.47 -425.84,176.42 -108.95,108.94 -176.33,259.71 -176.33,426.02l0 2036.93z"/>
 </g>
</svg>
