<?xml version="1.0" encoding="UTF-8"?>
<!DOCTYPE svg PUBLIC "-//W3C//DTD SVG 1.1//EN" "http://www.w3.org/Graphics/SVG/1.1/DTD/svg11.dtd">
<!-- Creator: CorelDRAW 2021.5 -->
<svg xmlns="http://www.w3.org/2000/svg" xml:space="preserve" width="299.997mm" height="300mm" version="1.1" style="shape-rendering:geometricPrecision; text-rendering:geometricPrecision; image-rendering:optimizeQuality; fill-rule:evenodd; clip-rule:evenodd"
viewBox="0 0 14316.2 14316.32"
 xmlns:xlink="http://www.w3.org/1999/xlink"
 xmlns:xodm="http://www.corel.com/coreldraw/odm/2003">
 <defs>
  <style type="text/css">
   <![CDATA[
    .fil0 {fill:#FFFFFF;fill-rule:nonzero}
   ]]>
  </style>
 </defs>
 <g id="Layer_x0020_1">
  <metadata id="CorelCorpID_0Corel-Layer"/>
  <path class="fil0" d="M10301 2471.28l0 -1476.96c0,-146.28 118.63,-264.91 264.91,-264.91l1854.31 0c146.28,0 264.91,118.63 264.91,264.91l0 3861.15 -529.82 -529.82 0 -3066.42 -1324.48 0 0 1741.87 -529.82 -529.82zm-746.49 3694.47c103.36,-103.36 271.17,-103.36 374.52,0 103.36,103.36 103.36,271.17 0,374.53l-5147.09 5147.03c-103.36,103.36 -271.17,103.36 -374.53,0 -103.36,-103.36 -103.36,-271.17 0,-374.52l5147.1 -5147.03zm-775.09 3541.62c-235.63,0 -448.92,95.48 -603.15,249.71 -154.23,154.23 -249.71,367.52 -249.71,603.15 0,236.13 95.1,449.42 248.7,602.96 154.29,154.23 367.9,249.64 604.15,249.64 236.19,0 449.8,-95.41 604.09,-249.64 153.6,-153.54 248.71,-366.83 248.71,-602.96 0,-235.63 -95.48,-448.92 -249.71,-603.15 -154.22,-154.23 -367.52,-249.71 -603.08,-249.71zm-977.68 -124.82c250.21,-250.21 595.89,-405 977.68,-405 381.66,0 727.41,154.79 977.61,405 250.21,250.2 405,595.89 405,977.67 0,380.97 -155.17,726.78 -406,977.49 -250.27,250.14 -595.64,404.93 -976.61,404.93 -381.03,0 -726.41,-154.79 -976.67,-404.93 -250.83,-250.71 -406,-596.52 -406,-977.49 0,-381.78 154.79,-727.47 404.99,-977.67zm-2264.74 -3145.63c-235.63,0 -448.92,95.48 -603.09,249.64 -154.22,154.22 -249.77,367.52 -249.77,602.96 0,235.63 95.48,448.92 249.71,603.15 154.23,154.22 367.52,249.71 603.15,249.71 235.44,0 448.73,-95.54 602.96,-249.77l11.95 -11.2c147.16,-153.29 237.69,-361.89 237.69,-591.88 0,-236.13 -95.04,-449.3 -248.71,-602.9l-1 -1c-153.6,-153.67 -366.77,-248.7 -602.89,-248.7zm-977.61 -124.89c250.14,-250.14 595.83,-404.94 977.61,-404.94 380.22,0 725.22,154.54 975.8,404.44l1.63 1.57c250.27,250.65 405,595.89 405,976.43 0,373.46 -148.72,712.64 -390.23,961.66l-14.7 15.95c-250.21,250.21 -595.83,405.06 -977.49,405.06 -381.79,0 -727.47,-154.79 -977.68,-405 -250.21,-250.21 -405,-595.89 -405,-977.67 0,-381.66 154.85,-727.28 405.06,-977.49zm-2921.77 845.97c0,-146.28 118.63,-264.91 264.91,-264.91 146.28,0 264.91,118.63 264.91,264.91l0 6628.5 9987.86 0 0 -6628.5c0,-146.28 118.63,-264.91 264.91,-264.91 146.28,0 264.91,118.63 264.91,264.91l0 6893.4c0,146.28 -118.63,264.91 -264.91,264.91l-10517.68 0c-146.28,0 -264.91,-118.63 -264.91,-264.91l0 -6893.4zm-1185.59 187.45c-103.36,103.36 -271.17,103.36 -374.52,0 -103.36,-103.36 -103.36,-271.17 0,-374.53l6893.4 -6893.4c103.36,-103.36 271.17,-103.36 374.53,0l6893.22 6893.4c103.36,103.36 103.36,271.17 0,374.53 -103.36,103.36 -271.17,103.36 -374.53,0l-6705.96 -6706.14 -6706.14 6706.14z"/>
 </g>
</svg>
