<?xml version="1.0" encoding="UTF-8"?>
<!DOCTYPE svg PUBLIC "-//W3C//DTD SVG 1.1//EN" "http://www.w3.org/Graphics/SVG/1.1/DTD/svg11.dtd">
<svg xmlns="http://www.w3.org/2000/svg" version="1.1" width="3859px" height="3544px" style="shape-rendering:geometricPrecision; text-rendering:geometricPrecision; image-rendering:optimizeQuality; fill-rule:evenodd; clip-rule:evenodd" xmlns:xlink="http://www.w3.org/1999/xlink">
<g><path style="opacity:0.997" fill="#FFFFFF" d="M 1920.5,-0.5 C 1926.17,-0.5 1931.83,-0.5 1937.5,-0.5C 1947.34,1.28365 1956.67,4.78365 1965.5,10C 2585.24,382.064 3205.24,753.731 3825.5,1125C 3844.66,1136.19 3855.66,1152.69 3858.5,1174.5C 3858.5,1177.83 3858.5,1181.17 3858.5,1184.5C 3854.56,1213.85 3838.89,1234.35 3811.5,1246C 3792,1251.37 3773.67,1248.71 3756.5,1238C 3147.4,872.701 2538.23,507.534 1929,142.5C 1319.77,507.534 710.6,872.701 101.5,1238C 63.5909,1257.65 32.7576,1249.81 9,1214.5C 3.95605,1204.96 0.789381,1194.96 -0.5,1184.5C -0.5,1181.17 -0.5,1177.83 -0.5,1174.5C 2.33675,1152.69 13.3368,1136.19 32.5,1125C 652.762,753.731 1272.76,382.064 1892.5,10C 1901.33,4.78365 1910.66,1.28365 1920.5,-0.5 Z"/></g>
<g><path style="opacity:0.997" fill="#FFFFFF" d="M 3569.5,3543.5 C 3435.17,3543.5 3300.83,3543.5 3166.5,3543.5C 3134.37,3536.2 3115.87,3516.2 3111,3483.5C 3110.5,2761.83 3110.33,2040.17 3110.5,1318.5C 2323.17,1318.5 1535.83,1318.5 748.5,1318.5C 748.667,2041.83 748.5,2765.17 748,3488.5C 741.653,3518.68 723.486,3537.01 693.5,3543.5C 558.833,3543.5 424.167,3543.5 289.5,3543.5C 259.762,3536.26 241.596,3517.59 235,3487.5C 234.333,2748.5 234.333,2009.5 235,1270.5C 278.583,1244.63 322.083,1218.63 365.5,1192.5C 366.5,1932.17 366.833,2671.83 366.5,3411.5C 449.833,3411.5 533.167,3411.5 616.5,3411.5C 616.333,2689.83 616.5,1968.17 617,1246.5C 621.948,1212.89 641.115,1193.05 674.5,1187C 1093,1186.83 1511.5,1186.67 1930,1186.5C 2348.5,1186.67 2767,1186.83 3185.5,1187C 3207.34,1190.33 3223.84,1201.5 3235,1220.5C 3238.53,1227.09 3240.86,1234.09 3242,1241.5C 3242.5,1964.83 3242.67,2688.17 3242.5,3411.5C 3326.17,3411.5 3409.83,3411.5 3493.5,3411.5C 3493.17,2672.17 3493.5,1932.83 3494.5,1193.5C 3537.83,1219.5 3581.17,1245.5 3624.5,1271.5C 3625.67,2009.17 3625.83,2746.83 3625,3484.5C 3619.67,3516.66 3601.17,3536.33 3569.5,3543.5 Z"/></g>
<g><path style="opacity:0.997" fill="#FFFFFF" d="M 845.5,1432.5 C 1567.83,1432.5 2290.17,1432.5 3012.5,1432.5C 3012.5,1476.5 3012.5,1520.5 3012.5,1564.5C 2290.17,1564.5 1567.83,1564.5 845.5,1564.5C 845.5,1520.5 845.5,1476.5 845.5,1432.5 Z"/></g>
<g><path style="opacity:0.993" fill="#FFFFFF" d="M 845.5,1678.5 C 1567.83,1678.5 2290.17,1678.5 3012.5,1678.5C 3012.5,1722.5 3012.5,1766.5 3012.5,1810.5C 2290.17,1810.5 1567.83,1810.5 845.5,1810.5C 845.5,1766.5 845.5,1722.5 845.5,1678.5 Z"/></g>
<g><path style="opacity:0.996" fill="#FFFFFF" d="M 1574.5,2014.5 C 1811.83,2014.33 2049.17,2014.5 2286.5,2015C 2331.85,2018.11 2371.85,2034.11 2406.5,2063C 2431.26,2085.75 2453.1,2110.92 2472,2138.5C 2496.03,2175.7 2519.86,2213.03 2543.5,2250.5C 2503.53,2269.48 2463.53,2288.48 2423.5,2307.5C 2404.85,2278.87 2386.68,2249.87 2369,2220.5C 2356.41,2200.24 2341.24,2182.07 2323.5,2166C 2310.03,2155.27 2294.7,2148.94 2277.5,2147C 2099.18,2143.91 1920.84,2142.91 1742.5,2144C 1700.14,2144.51 1657.81,2145.84 1615.5,2148C 1596.7,2148.81 1578.03,2150.81 1559.5,2154C 1551.53,2155.82 1544.53,2159.48 1538.5,2165C 1524.16,2179.33 1511.32,2194.83 1500,2211.5C 1478.5,2243.83 1457.5,2276.49 1437,2309.5C 1397.09,2290.13 1357.26,2270.63 1317.5,2251C 1342.96,2210.58 1368.79,2170.41 1395,2130.5C 1415.36,2101.14 1439.52,2075.31 1467.5,2053C 1499.64,2030.34 1535.31,2017.51 1574.5,2014.5 Z"/></g>
<g><path style="opacity:0.996" fill="#FFFFFF" d="M 1178.5,2340.5 C 1207.52,2340.14 1236.52,2340.64 1265.5,2342C 1296.5,2344.56 1325.5,2353.56 1352.5,2369C 1392.72,2394.27 1431.72,2421.27 1469.5,2450C 1775.5,2451.73 2081.5,2452.4 2387.5,2452C 2394.32,2449.09 2400.66,2445.42 2406.5,2441C 2428.88,2422.95 2451.55,2405.28 2474.5,2388C 2497.38,2371.39 2522.38,2358.73 2549.5,2350C 2559.66,2347.1 2569.99,2345.1 2580.5,2344C 2669.86,2343.02 2759.2,2343.35 2848.5,2345C 2875.71,2352.21 2891.87,2369.71 2897,2397.5C 2901.24,2426.83 2891.41,2450 2867.5,2467C 2852.85,2474.3 2837.35,2477.14 2821,2475.5C 2765.18,2473.54 2709.35,2472.7 2653.5,2473C 2627.86,2472.93 2602.53,2475.59 2577.5,2481C 2573.71,2482.39 2570.05,2484.06 2566.5,2486C 2526.27,2522.13 2481.6,2551.8 2432.5,2575C 2422.81,2579.01 2412.81,2582.01 2402.5,2584C 2153.51,2587.17 1904.51,2588.17 1655.5,2587C 1599.15,2586.53 1542.81,2585.2 1486.5,2583C 1472.14,2582.33 1457.81,2581.33 1443.5,2580C 1436,2579.53 1428.67,2578.2 1421.5,2576C 1409.34,2569.75 1397.67,2562.75 1386.5,2555C 1358.11,2533.61 1329.45,2512.61 1300.5,2492C 1290.14,2485.3 1279.14,2479.97 1267.5,2476C 1183.5,2475.67 1099.5,2475.33 1015.5,2475C 985.15,2469.65 966.983,2451.82 961,2421.5C 956.759,2392.17 966.592,2369 990.5,2352C 998.28,2347.64 1006.61,2344.97 1015.5,2344C 1070.01,2343.48 1124.34,2342.32 1178.5,2340.5 Z"/></g>
<g><path style="opacity:0.995" fill="#FFFFFF" d="M 1141.5,2572.5 C 1175.83,2572.33 1210.17,2572.5 1244.5,2573C 1265.82,2580.77 1278.32,2595.94 1282,2618.5C 1284.96,2644.4 1276.46,2665.56 1256.5,2682C 1249.9,2686.87 1242.56,2690.2 1234.5,2692C 1223.58,2693.84 1212.58,2694.84 1201.5,2695C 1153.34,2702.84 1119.51,2729.01 1100,2773.5C 1095.81,2784.47 1093.14,2795.81 1092,2807.5C 1091.5,2906.17 1091.33,3004.83 1091.5,3103.5C 1649.83,3103.5 2208.17,3103.5 2766.5,3103.5C 2766.67,3004.83 2766.5,2906.17 2766,2807.5C 2757.8,2751.31 2726.64,2714.81 2672.5,2698C 2667.24,2696.61 2661.91,2695.61 2656.5,2695C 2642.92,2695.16 2629.59,2693.49 2616.5,2690C 2589.52,2678.14 2575.85,2657.3 2575.5,2627.5C 2575.54,2600.32 2588.21,2582.16 2613.5,2573C 2647.83,2572.33 2682.17,2572.33 2716.5,2573C 2803.93,2602.09 2861.43,2660.59 2889,2748.5C 2893.62,2765.21 2896.62,2782.21 2898,2799.5C 2898.67,2910.83 2898.67,3022.17 2898,3133.5C 2889.85,3183.99 2861.35,3216.82 2812.5,3232C 2807.24,3233.39 2801.91,3234.39 2796.5,3235C 2218.17,3235.67 1639.83,3235.67 1061.5,3235C 1009.41,3226.24 976.24,3196.41 962,3145.5C 961.333,3141.5 960.667,3137.5 960,3133.5C 959.333,3022.83 959.333,2912.17 960,2801.5C 969.023,2727.95 1000.86,2666.45 1055.5,2617C 1080.18,2594.5 1108.84,2579.66 1141.5,2572.5 Z"/></g>
<g><path style="opacity:0.998" fill="#FFFFFF" d="M 2325.5,2791.5 C 2402.5,2791.33 2479.5,2791.5 2556.5,2792C 2590.02,2795.19 2609.86,2813.35 2616,2846.5C 2619.3,2870.25 2612.8,2890.75 2596.5,2908C 2587.25,2915.87 2576.58,2920.87 2564.5,2923C 2482.5,2923.67 2400.5,2923.67 2318.5,2923C 2290.9,2917.4 2273.73,2900.9 2267,2873.5C 2262.24,2848.47 2268.4,2826.64 2285.5,2808C 2297.18,2798.32 2310.51,2792.82 2325.5,2791.5 Z"/></g>
<g><path style="opacity:0.998" fill="#FFFFFF" d="M 1301.5,2791.5 C 1378.5,2791.33 1455.5,2791.5 1532.5,2792C 1566.9,2795.4 1586.74,2814.23 1592,2848.5C 1594.8,2873.44 1586.97,2894.27 1568.5,2911C 1559.89,2917.47 1550.22,2921.47 1539.5,2923C 1455.8,2923.99 1372.13,2923.65 1288.5,2922C 1264,2915.21 1248.83,2899.38 1243,2874.5C 1237.56,2847.84 1244.39,2825.01 1263.5,2806C 1274.86,2797.5 1287.52,2792.66 1301.5,2791.5 Z"/></g>
<g><path style="opacity:0.996" fill="#FFFFFF" d="M 1524.5,3543.5 C 1421.83,3543.5 1319.17,3543.5 1216.5,3543.5C 1175.67,3538.84 1148.17,3517.18 1134,3478.5C 1125.57,3452.17 1121.24,3425.17 1121,3397.5C 1120.88,3357.82 1121.71,3318.15 1123.5,3278.5C 1167.5,3278.5 1211.5,3278.5 1255.5,3278.5C 1255.5,3322.83 1255.5,3367.17 1255.5,3411.5C 1333.17,3411.5 1410.83,3411.5 1488.5,3411.5C 1488.5,3367.17 1488.5,3322.83 1488.5,3278.5C 1532.5,3278.5 1576.5,3278.5 1620.5,3278.5C 1621.26,3313.84 1622.26,3349.18 1623.5,3384.5C 1623.37,3406.65 1621.54,3428.65 1618,3450.5C 1608.15,3503.18 1576.98,3534.18 1524.5,3543.5 Z"/></g>
<g><path style="opacity:0.996" fill="#FFFFFF" d="M 2638.5,3543.5 C 2535.83,3543.5 2433.17,3543.5 2330.5,3543.5C 2290.61,3538.97 2263.45,3517.97 2249,3480.5C 2241.33,3458.83 2237,3436.49 2236,3413.5C 2235.47,3401.17 2234.97,3388.83 2234.5,3376.5C 2235.59,3343.83 2236.59,3311.17 2237.5,3278.5C 2281.5,3278.5 2325.5,3278.5 2369.5,3278.5C 2369.5,3322.83 2369.5,3367.17 2369.5,3411.5C 2447.17,3411.5 2524.83,3411.5 2602.5,3411.5C 2602.5,3367.17 2602.5,3322.83 2602.5,3278.5C 2646.5,3278.5 2690.5,3278.5 2734.5,3278.5C 2735.51,3313.33 2736.51,3348.16 2737.5,3383C 2737.77,3407.73 2735.61,3432.23 2731,3456.5C 2719.28,3506.06 2688.44,3535.06 2638.5,3543.5 Z"/></g>
</svg>
