<?xml version="1.0" encoding="UTF-8"?>
<!DOCTYPE svg PUBLIC "-//W3C//DTD SVG 1.1//EN" "http://www.w3.org/Graphics/SVG/1.1/DTD/svg11.dtd">
<!-- Creator: CorelDRAW 2021.5 -->
<svg xmlns="http://www.w3.org/2000/svg" xml:space="preserve" width="299.997mm" height="300mm" version="1.1" style="shape-rendering:geometricPrecision; text-rendering:geometricPrecision; image-rendering:optimizeQuality; fill-rule:evenodd; clip-rule:evenodd"
viewBox="0 0 20322.82 20323"
 xmlns:xlink="http://www.w3.org/1999/xlink"
 xmlns:xodm="http://www.corel.com/coreldraw/odm/2003">
 <defs>
  <style type="text/css">
   <![CDATA[
    .fil0 {fill:#FFFFFF;fill-rule:nonzero}
   ]]>
  </style>
 </defs>
 <g id="Layer_x0020_1">
  <metadata id="CorelCorpID_0Corel-Layer"/>
  <path class="fil0" d="M14623.07 3508.33l0 -2096.83c0,-207.65 168.4,-376.06 376.06,-376.06l2632.32 0c207.65,0 376.06,168.4 376.06,376.06l0 5481.17 -752.11 -752.11 0 -4353 -1880.2 0 0 2472.88 -752.11 -752.11zm485.04 8370.61c0,-1366.12 -553.79,-2603 -1448.81,-3498.03 -895.02,-895.02 -2131.91,-1448.81 -3498.03,-1448.81 -1366.03,0 -2602.74,553.69 -3497.76,1448.81 -895.02,895.02 -1448.72,2131.91 -1448.72,3498.03 0,1365.94 553.69,2602.73 1448.72,3497.76 894.93,894.94 2131.73,1448.72 3497.76,1448.72 1366.02,0 2602.83,-553.69 3497.93,-1448.72 895.11,-895.02 1448.9,-2131.82 1448.9,-3497.76zm-917.14 -4029.7c1031.27,1031.28 1669.26,2456.19 1669.26,4029.7 0,1573.33 -637.99,2998.15 -1669.34,4029.43 -1031.27,1031.18 -2456.01,1669.16 -4029.6,1669.16 -1573.51,0 -2998.25,-637.98 -4029.43,-1669.16 -1031.27,-1031.28 -1669.17,-2456.1 -1669.17,-4029.43 0,-1573.51 637.9,-2998.42 1669.17,-4029.7 1031.18,-1031.27 2455.83,-1669.25 4029.43,-1669.25 1573.51,0 2998.42,637.98 4029.69,1669.25zm-3542.7 6684.57l0 793.95c0,207.65 -168.4,376.06 -376.06,376.06 -207.66,0 -376.06,-168.4 -376.06,-376.06l0 -808.43c-381.12,-62.08 -681.23,-193.18 -914.47,-350.03 -524.38,-352.61 -719.52,-858.08 -752.03,-1028.52 -38.1,-203.57 96.1,-399.6 299.68,-437.7 203.57,-38.11 399.59,96.1 437.7,299.67 15.72,82.61 122.3,335.65 431.75,543.75 198.33,133.41 477.31,239.28 864.38,258.37l18.56 0.8 0.18 0 1.95 0.09c433.61,15.36 765.7,-164.49 938.37,-415.58 67.77,-98.5 110.23,-207.92 122.75,-318.77 12.08,-106.67 -3.64,-215.92 -50.9,-318.68 -125.77,-273.11 -468.61,-516.12 -1096.02,-617.11l-11.19 -1.6c-402.17,-63.6 -854.43,-201.89 -1181.55,-448.8 -301.27,-227.2 -501.47,-537.89 -496.32,-953.47 6.04,-514.35 238.21,-906.48 586.91,-1168.32 228.88,-172.04 506.98,-283.86 800.25,-333.24l0 -800.43c0,-207.65 168.4,-376.06 376.06,-376.06 207.65,0 376.06,168.4 376.06,376.06l0 808.25c77.89,14.48 155.17,33.31 231.19,56.4 519.85,158.19 980.64,517.72 1196.03,1091.76 72.12,193.8 -26.47,409.63 -220.27,481.75 -193.8,72.12 -409.63,-26.47 -481.75,-220.27 -124.25,-331.21 -399.06,-541.44 -711.43,-636.48 -120.44,-36.68 -246.74,-56.4 -372.77,-59.6l-17.05 0.45c-8.62,0 -17.23,-0.26 -25.76,-0.89 -65.01,0.26 -129.76,4.88 -193.54,13.94 -191.58,27.09 -369.13,93.7 -507.59,197.71 -170.53,128.08 -284.31,321.97 -287.24,577.86 -1.69,139.62 78.78,254.02 199.66,345.23 217.34,163.96 546.06,260.42 846.53,307.93l14.03 2.49c910.39,147.53 1436.38,562.31 1657.35,1042.2 106.76,232.08 142.29,477.04 115.37,715.17 -26.47,234.13 -113.42,461.33 -251.89,662.5 -247.62,360.07 -663.38,638.34 -1190.87,717.65zm-8323.45 -4372.53c0,-207.66 168.4,-376.06 376.06,-376.06 207.66,0 376.06,168.4 376.06,376.06l0 9409.6 14178.45 0 0 -9409.6c0,-207.66 168.4,-376.06 376.06,-376.06 207.65,0 376.06,168.4 376.06,376.06l0 9785.66c0,207.65 -168.4,376.06 -376.06,376.06l-14930.56 0c-207.65,0 -376.06,-168.4 -376.06,-376.06l0 -9785.66zm-1683.11 265.83c-146.73,146.73 -384.94,146.73 -531.66,0 -146.73,-146.73 -146.73,-384.94 0,-531.67l9785.4 -9785.4c146.73,-146.73 384.94,-146.73 531.66,0l9785.67 9785.4c146.73,146.73 146.73,384.94 0,531.67 -146.73,146.73 -384.94,146.73 -531.67,0l-9519.83 -9519.56 -9519.56 9519.56z"/>
 </g>
</svg>
