<?xml version="1.0" encoding="UTF-8"?>
<!DOCTYPE svg PUBLIC "-//W3C//DTD SVG 1.1//EN" "http://www.w3.org/Graphics/SVG/1.1/DTD/svg11.dtd">
<!-- Creator: CorelDRAW 2021.5 -->
<svg xmlns="http://www.w3.org/2000/svg" xml:space="preserve" width="299.998mm" height="300mm" version="1.1" style="shape-rendering:geometricPrecision; text-rendering:geometricPrecision; image-rendering:optimizeQuality; fill-rule:evenodd; clip-rule:evenodd"
viewBox="0 0 25718.38 25718.49"
 xmlns:xlink="http://www.w3.org/1999/xlink"
 xmlns:xodm="http://www.corel.com/coreldraw/odm/2003">
 <defs>
  <style type="text/css">
   <![CDATA[
    .fil0 {fill:#FFFFFF;fill-rule:nonzero}
   ]]>
  </style>
 </defs>
 <g id="Layer_x0020_1">
  <metadata id="CorelCorpID_0Corel-Layer"/>
  <path class="fil0" d="M19457.18 6242.65c0,47.89 -7.07,94.08 -20.22,137.69l2399.49 2399.49 0 -6517.79 -2379.27 0 0 3980.61zm2379.27 7245.03l-8857.5 -9078.93 -9085.22 9084.1 0 11273.85 5710.55 0 0 -8668.21c0,-262.79 213.11,-475.9 475.9,-475.9l5569.94 0c262.79,0 475.9,213.11 475.9,475.9l0 8668.21 5710.44 0 0 -11279.02zm-8514.01 -10085.91l9304.85 9537.4c98.69,87.22 160.96,214.68 160.96,356.75l0 11946.68c0,262.78 -213.1,475.9 -475.9,475.9l-6662.24 0c-262.78,0 -475.9,-213.11 -475.9,-475.9l0 -8668.22 -4618.14 0 0 8668.22c0,262.78 -213.11,475.9 -475.9,475.9l-6662.34 0c-262.79,0 -475.9,-213.11 -475.9,-475.9l0 -11946.68c0.22,-121.84 46.64,-243.56 139.48,-336.41l9564.49 -9563.26 0.9 0.9 4.6 -4.6c187.82,-182.65 488.38,-178.61 671.02,9.22zm-12510.35 9793.56c-185.69,185.68 -487.13,185.68 -672.82,0 -185.68,-185.69 -185.68,-487.14 0,-672.82l12383.68 -12383.23c185.69,-185.69 487.14,-185.69 672.82,0l5309.62 5309.62 0 -3662.75c0,-262.78 213.11,-475.9 475.9,-475.9l3331.06 0c262.79,0 475.9,213.11 475.9,475.9l0 7945.49 2790.87 2790.87c185.68,185.68 185.68,487.13 0,672.82 -185.68,185.68 -487.13,185.68 -672.82,0l-2921.02 -2920.92 -18.66 -18.65 -9107.24 -9107.25 -12047.27 12046.83z"/>
 </g>
</svg>
