<?xml version="1.0" encoding="UTF-8"?>
<!DOCTYPE svg PUBLIC "-//W3C//DTD SVG 1.1//EN" "http://www.w3.org/Graphics/SVG/1.1/DTD/svg11.dtd">
<svg xmlns="http://www.w3.org/2000/svg" version="1.1" width="3544px" height="3544px" style="shape-rendering:geometricPrecision; text-rendering:geometricPrecision; image-rendering:optimizeQuality; fill-rule:evenodd; clip-rule:evenodd" xmlns:xlink="http://www.w3.org/1999/xlink">
<g><path style="opacity:0.997" fill="#FFFFFF" d="M 1764.5,-0.5 C 1769.17,-0.5 1773.83,-0.5 1778.5,-0.5C 1791.74,1.61615 1803.74,6.78282 1814.5,15C 2385.67,586.167 2956.83,1157.33 3528,1728.5C 3536.38,1738.82 3541.54,1750.48 3543.5,1763.5C 3543.5,1769.17 3543.5,1774.83 3543.5,1780.5C 3534.04,1820.42 3508.7,1839.25 3467.5,1837C 3456.11,1835.14 3445.78,1830.8 3436.5,1824C 2881.65,1268.99 2326.65,714.153 1771.5,159.5C 1216.68,713.82 662.014,1268.32 107.5,1823C 87.7732,1837.74 66.1066,1841.41 42.5,1834C 18.7722,1824.11 4.43886,1806.61 -0.5,1781.5C -0.5,1774.83 -0.5,1768.17 -0.5,1761.5C 1.84743,1749.8 6.68077,1739.13 14,1729.5C 585.5,1158 1157,586.5 1728.5,15C 1739.26,6.78282 1751.26,1.61615 1764.5,-0.5 Z"/></g>
<g><path style="opacity:0.997" fill="#FFFFFF" d="M 2603.5,180.5 C 2763.83,180.333 2924.17,180.5 3084.5,181C 3114.67,187.167 3132.83,205.333 3139,235.5C 3139.67,557.833 3139.67,880.167 3139,1202.5C 3095.33,1158.83 3051.67,1115.17 3008,1071.5C 3007.5,818.5 3007.33,565.5 3007.5,312.5C 2898.5,312.5 2789.5,312.5 2680.5,312.5C 2680.67,456.167 2680.5,599.834 2680,743.5C 2636.33,699.833 2592.67,656.167 2549,612.5C 2548.33,488.5 2548.33,364.5 2549,240.5C 2553.75,208.248 2571.92,188.248 2603.5,180.5 Z"/></g>
<g><path style="opacity:0.997" fill="#FFFFFF" d="M 1277.5,932.5 C 1309.03,931.42 1331.69,944.92 1345.5,973C 1347.7,978.653 1349.2,984.487 1350,990.5C 1350.5,1044.17 1350.67,1097.83 1350.5,1151.5C 1434.8,1165.72 1504.97,1204.72 1561,1268.5C 1584.69,1297.25 1603.03,1329.25 1616,1364.5C 1624.03,1394.74 1615.87,1419.57 1591.5,1439C 1568.08,1453.19 1544.08,1454.19 1519.5,1442C 1508.38,1435.27 1499.88,1426.1 1494,1414.5C 1473.94,1360.23 1437.44,1321.4 1384.5,1298C 1321.59,1271.88 1257.92,1269.88 1193.5,1292C 1157.59,1304.68 1129.75,1327.18 1110,1359.5C 1093.77,1389 1089.77,1420 1098,1452.5C 1105.18,1467.68 1115.35,1480.52 1128.5,1491C 1157.12,1511.31 1188.46,1526.31 1222.5,1536C 1255.78,1544.82 1289.44,1551.82 1323.5,1557C 1393.2,1570.2 1456.54,1597.53 1513.5,1639C 1562.4,1676.94 1595.23,1725.77 1612,1785.5C 1631.44,1886.52 1603.94,1972.35 1529.5,2043C 1478.55,2088.8 1418.88,2116.3 1350.5,2125.5C 1350.67,2178.5 1350.5,2231.5 1350,2284.5C 1345.3,2311.86 1329.8,2330.03 1303.5,2339C 1275.07,2345.97 1251.24,2338.47 1232,2316.5C 1224.91,2306.98 1220.57,2296.31 1219,2284.5C 1218.5,2230.5 1218.33,2176.5 1218.5,2122.5C 1136.6,2111.21 1064.94,2078.37 1003.5,2024C 959.639,1983.13 928.805,1933.97 911,1876.5C 903.637,1840.06 916.47,1813.56 949.5,1797C 979.938,1786.71 1005.77,1793.54 1027,1817.5C 1030.51,1822.51 1033.51,1827.84 1036,1833.5C 1042.94,1863.73 1056.94,1890.06 1078,1912.5C 1120.7,1956.27 1172.54,1982.77 1233.5,1992C 1268.41,1998.31 1303.41,1998.98 1338.5,1994C 1393.77,1984.98 1436.93,1957.48 1468,1911.5C 1500.84,1849.37 1491.01,1794.87 1438.5,1748C 1414.97,1729.23 1388.97,1714.56 1360.5,1704C 1344.11,1698.07 1327.44,1693.07 1310.5,1689C 1284.23,1683.68 1257.9,1678.68 1231.5,1674C 1178.23,1663.02 1127.89,1644.36 1080.5,1618C 972.674,1551.91 937.841,1458.07 976,1336.5C 997.318,1277.52 1034.49,1231.35 1087.5,1198C 1127.79,1173.35 1171.29,1157.18 1218,1149.5C 1218.03,1094.14 1218.69,1038.8 1220,983.5C 1228.43,954.225 1247.6,937.225 1277.5,932.5 Z"/></g>
<g><path style="opacity:0.998" fill="#FFFFFF" d="M 2617.5,1253.5 C 2655.65,1251.31 2680.48,1268.31 2692,1304.5C 2696.32,1325.54 2691.99,1344.54 2679,1361.5C 2043.83,1996.67 1408.67,2631.83 773.5,3267C 748.042,3284.79 721.709,3286.12 694.5,3271C 667.244,3250.18 659.078,3223.34 670,3190.5C 672.493,3184.84 675.493,3179.51 679,3174.5C 1314.5,2539 1950,1903.5 2585.5,1268C 2595.13,1260.68 2605.8,1255.85 2617.5,1253.5 Z"/></g>
<g><path style="opacity:0.995" fill="#FFFFFF" d="M 3085.5,3543.5 C 2210.17,3543.5 1334.83,3543.5 459.5,3543.5C 428.869,3536.03 410.702,3516.7 405,3485.5C 404.333,2911.83 404.333,2338.17 405,1764.5C 410.497,1731 429.997,1711.5 463.5,1706C 495.299,1704.48 518.132,1717.98 532,1746.5C 533.802,1751.37 535.135,1756.37 536,1761.5C 536.5,2311.5 536.667,2861.5 536.5,3411.5C 1360.17,3411.5 2183.83,3411.5 3007.5,3411.5C 3007.33,2862.5 3007.5,2313.5 3008,1764.5C 3012.81,1733.7 3030.31,1714.53 3060.5,1707C 3095,1702.16 3119.83,1715.33 3135,1746.5C 3136.8,1751.37 3138.14,1756.37 3139,1761.5C 3139.67,2337.17 3139.67,2912.83 3139,3488.5C 3132.77,3518.23 3114.94,3536.56 3085.5,3543.5 Z M 2067.5,2383.5 C 2112.7,2381.51 2145.53,2400.51 2166,2440.5C 2180.47,2477.99 2175.14,2512.32 2150,2543.5C 2121.94,2572.18 2088.44,2581.35 2049.5,2571C 2011.7,2557.54 1989.53,2531.04 1983,2491.5C 1979.8,2445.05 1998.97,2411.55 2040.5,2391C 2049.41,2387.69 2058.41,2385.19 2067.5,2383.5 Z M 2620.5,2941.5 C 2670.84,2939.4 2705.01,2961.74 2723,3008.5C 2733.67,3050.15 2722.84,3084.99 2690.5,3113C 2649.13,3141 2608.46,3140 2568.5,3110C 2536.47,3078.7 2527.97,3041.87 2543,2999.5C 2558.71,2966.62 2584.55,2947.28 2620.5,2941.5 Z"/></g>
<g><path style="opacity:0.997" fill="#FFFFFF" d="M 2059.5,2251.5 C 2156.48,2248.22 2229.65,2287.89 2279,2370.5C 2316.23,2444.51 2315.56,2518.18 2277,2591.5C 2228.3,2670.61 2157.13,2709.11 2063.5,2707C 1981.31,2699.39 1919.47,2660.22 1878,2589.5C 1847.29,2530.41 1841.96,2469.07 1862,2405.5C 1892.97,2323.87 1951.14,2273.7 2036.5,2255C 2044.3,2253.77 2051.97,2252.6 2059.5,2251.5 Z M 2067.5,2383.5 C 2058.41,2385.19 2049.41,2387.69 2040.5,2391C 1998.97,2411.55 1979.8,2445.05 1983,2491.5C 1989.53,2531.04 2011.7,2557.54 2049.5,2571C 2088.44,2581.35 2121.94,2572.18 2150,2543.5C 2175.14,2512.32 2180.47,2477.99 2166,2440.5C 2145.53,2400.51 2112.7,2381.51 2067.5,2383.5 Z"/></g>
<g><path style="opacity:0.997" fill="#FFFFFF" d="M 2768.5,2277.5 C 2810.03,2280.53 2833.03,2302.69 2837.5,2344C 2836.71,2359.75 2831.54,2373.92 2822,2386.5C 2542.5,2666 2263,2945.5 1983.5,3225C 1955.83,3244.33 1928.16,3244.33 1900.5,3225C 1877.39,3204.31 1870.55,3179.15 1880,3149.5C 1882.9,3142.71 1886.56,3136.37 1891,3130.5C 2170.17,2851.33 2449.33,2572.17 2728.5,2293C 2740.27,2283.61 2753.6,2278.44 2768.5,2277.5 Z"/></g>
<g><path style="opacity:0.997" fill="#FFFFFF" d="M 2611.5,2809.5 C 2696.01,2805.52 2764.17,2836.52 2816,2902.5C 2862.22,2970.28 2871.56,3042.95 2844,3120.5C 2815.89,3188.61 2766.73,3233.77 2696.5,3256C 2602.24,3279.57 2522.41,3255.74 2457,3184.5C 2407.26,3122.17 2392.26,3052.17 2412,2974.5C 2433.23,2905.61 2476.73,2856.44 2542.5,2827C 2564.79,2817.84 2587.79,2812.01 2611.5,2809.5 Z M 2620.5,2941.5 C 2584.55,2947.28 2558.71,2966.62 2543,2999.5C 2527.97,3041.87 2536.47,3078.7 2568.5,3110C 2608.46,3140 2649.13,3141 2690.5,3113C 2722.84,3084.99 2733.67,3050.15 2723,3008.5C 2705.01,2961.74 2670.84,2939.4 2620.5,2941.5 Z"/></g>
</svg>
 