<?xml version="1.0" encoding="UTF-8"?>
<!DOCTYPE svg PUBLIC "-//W3C//DTD SVG 1.1//EN" "http://www.w3.org/Graphics/SVG/1.1/DTD/svg11.dtd">
<!-- Creator: CorelDRAW 2021.5 -->
<svg xmlns="http://www.w3.org/2000/svg" xml:space="preserve" width="299.998mm" height="300mm" version="1.1" style="shape-rendering:geometricPrecision; text-rendering:geometricPrecision; image-rendering:optimizeQuality; fill-rule:evenodd; clip-rule:evenodd"
viewBox="0 0 16823.33 16823.4"
 xmlns:xlink="http://www.w3.org/1999/xlink"
 xmlns:xodm="http://www.corel.com/coreldraw/odm/2003">
 <defs>
  <style type="text/css">
   <![CDATA[
    .fil0 {fill:#FFFFFF;fill-rule:nonzero}
   ]]>
  </style>
 </defs>
 <g id="Layer_x0020_1">
  <metadata id="CorelCorpID_0Corel-Layer"/>
  <path class="fil0" d="M7666.46 6467.43c59.7,160.43 -21.91,339.09 -182.34,398.79 -160.43,59.71 -339.09,-21.91 -398.79,-182.34 -111.54,-297.33 -357.48,-485.92 -637.16,-571.07 -108.15,-32.94 -221.6,-50.66 -334.83,-53.38l-13.6 0.36c-7.13,0 -14.27,-0.22 -21.32,-0.73 -58.46,0.15 -116.69,4.34 -173.96,12.43 -171.68,24.26 -330.86,83.97 -455.34,177.34 -154.62,116.09 -257.7,291.45 -260.49,522.91 -0.96,130.28 72.86,235.94 183.52,319.46 194.1,146.46 485.55,232.19 751.64,274.17 801.2,126.46 1262.86,488.5 1455.63,907.29 92.42,200.65 123.01,412.4 99.77,618.41 -22.94,202.63 -98.23,399.31 -218.15,573.42 -217.48,316.01 -584.22,559.52 -1050,625.1l0 714.65c0,171.9 -139.4,311.31 -311.3,311.31 -171.9,0 -311.3,-139.4 -311.3,-311.31l0 -727.01c-339.76,-53.01 -606.14,-168.44 -812.59,-307.26 -455.48,-306.15 -624.81,-743.99 -652.75,-891.56 -31.54,-168.51 79.55,-330.79 248.07,-362.33 168.51,-31.54 330.79,79.55 362.33,248.07 14.19,74.77 110.14,303.72 387.62,490.26 176.97,118.96 425.41,213.29 769.8,230.28l14.7 0.66 2.13 0 1.69 0.15 6.32 0.22c385.12,11.69 680.32,-149.7 834.58,-373.87 61.39,-89.26 99.85,-188.37 111.24,-288.88 10.96,-97.12 -3.31,-196.6 -46.39,-290.2 -113.52,-246.6 -422.18,-465.63 -986.26,-554.67 -351.81,-55.58 -746.71,-176.09 -1031.33,-390.78 -260.13,-196.39 -433.13,-464.09 -429.09,-821.71l0 -1.24c5.37,-445.48 206.6,-785.02 508.57,-1011.7 203,-152.34 450.49,-250.35 711.35,-291.82l0 -719.8c0,-171.9 139.4,-311.3 311.3,-311.3 171.9,0 311.3,139.4 311.3,311.3l0 726.35c73.23,12.94 145.8,30.37 217.12,52.06 451.51,137.49 851.41,449.75 1038.31,947.95zm-5741.96 1944.06c0,-171.9 139.4,-311.31 311.3,-311.31 171.9,0 311.3,139.4 311.3,311.31l0 7789.31 11736.69 0 0 -7789.31c0,-171.9 139.4,-311.31 311.3,-311.31 171.9,0 311.31,139.4 311.31,311.31l0 8100.61c0,171.9 -139.4,311.3 -311.31,311.3l-12359.29 0c-171.9,0 -311.3,-139.4 -311.3,-311.3l0 -8100.61zm-1393.29 220.06c-121.47,121.47 -318.65,121.47 -440.12,0 -121.46,-121.46 -121.46,-318.65 0,-440.12l8100.61 -8100.32c121.47,-121.46 318.66,-121.46 440.12,0l8100.4 8100.32c121.46,121.47 121.46,318.66 0,440.12 -121.47,121.47 -318.65,121.47 -440.12,0l-7880.33 -7880.26 -7880.56 7880.26zm11573.83 -5727.47l0 -1735.69c0,-171.9 139.4,-311.3 311.3,-311.3l2178.74 0c171.9,0 311.31,139.4 311.31,311.3l0 4536.97 -622.61 -622.61 0 -3603.06 -1556.14 0 0 2046.99 -622.6 -622.6zm-8411.99 12583.1c-121.46,121.46 -318.65,121.46 -440.12,0 -121.46,-121.47 -121.46,-318.66 0,-440.12l9003.79 -9003.79c121.47,-121.46 318.65,-121.46 440.12,0 121.46,121.47 121.46,318.66 0,440.12l-9003.79 9003.79zm9244.51 -4578.73c121.46,-121.47 318.65,-121.47 440.11,0 121.47,121.46 121.47,318.65 0,440.12l-3936.56 3936.79c-121.47,121.46 -318.66,121.46 -440.12,0 -121.47,-121.47 -121.47,-318.65 0,-440.12l3936.57 -3936.79zm-442.4 3053.54c-127.34,0 -242.34,51.32 -325.12,134.03 -82.05,81.98 -132.86,196.53 -132.86,323.73 0,127.27 50.88,241.83 132.93,323.88l1.18 1.17c82.05,82.05 196.6,132.93 323.87,132.93 126.53,0 241.09,-51.24 323.95,-134.11l12.86 -12.14c75.14,-81.02 121.24,-190.65 121.24,-311.74 0,-126.46 -51.32,-241.09 -134.03,-323.8l-11.69 -12.35c-81.61,-75.43 -191.38,-121.61 -312.33,-121.61zm-762.89 -306.09c195.57,-195.5 465.48,-316.52 762.89,-316.52 288.22,0 550.62,113.6 744.58,298.44l19.56 18.01c195.5,195.5 316.52,465.63 316.52,763.92 0,287.41 -113.45,549.67 -298.29,743.99l-18.31 20c-195.57,195.58 -465.85,316.6 -764.06,316.6 -296.45,0 -566.14,-120.73 -762.08,-315.94l-1.91 -1.83c-195.65,-196.09 -316.59,-466 -316.59,-762.82 0,-297.55 121.46,-567.75 317.7,-763.84zm-1864.06 -2342.71c-126.61,0 -241.24,51.25 -324.1,134.11 -82.86,82.86 -134.18,197.48 -134.18,323.95 0,126.46 51.32,241.01 134.18,323.88 82.86,82.86 197.49,134.11 324.1,134.11 127.27,0 241.82,-50.88 323.87,-132.93l1.18 -1.17c82.05,-82.05 132.93,-196.6 132.93,-323.88 0,-126.53 -51.25,-241.09 -134.11,-323.95l-12.13 -12.87c-81.03,-75.14 -190.65,-121.24 -311.74,-121.24zm-764.21 -306.01c195.58,-195.57 465.92,-316.59 764.21,-316.59 287.48,0 549.67,113.45 743.99,298.28l20 18.31c195.57,195.57 316.59,465.85 316.59,764.06 0,296.45 -120.72,566.06 -315.93,762.08l-1.84 1.91c-196.09,195.65 -466,316.6 -762.81,316.6 -298.29,0 -568.64,-121.02 -764.21,-316.6 -195.57,-195.57 -316.67,-465.7 -316.67,-763.99 0,-298.28 121.09,-568.49 316.67,-764.06z"/>
 </g>
</svg>
