<?xml version="1.0" encoding="UTF-8"?>
<!DOCTYPE svg PUBLIC "-//W3C//DTD SVG 1.1//EN" "http://www.w3.org/Graphics/SVG/1.1/DTD/svg11.dtd">
<svg xmlns="http://www.w3.org/2000/svg" version="1.1" width="3472px" height="3544px" style="shape-rendering:geometricPrecision; text-rendering:geometricPrecision; image-rendering:optimizeQuality; fill-rule:evenodd; clip-rule:evenodd" xmlns:xlink="http://www.w3.org/1999/xlink">
<g><path style="opacity:0.998" fill="#2d2c2b" d="M 1728.5,-0.5 C 1733.5,-0.5 1738.5,-0.5 1743.5,-0.5C 1752.88,1.47078 1761.55,5.30412 1769.5,11C 2333,574.5 2896.5,1138 3460,1701.5C 3465.22,1708.93 3469.05,1716.93 3471.5,1725.5C 3471.5,1732.17 3471.5,1738.83 3471.5,1745.5C 3461.94,1777.85 3440.28,1792.02 3406.5,1788C 3397.61,1785.77 3389.61,1781.77 3382.5,1776C 2833.65,1226.99 2284.65,678.153 1735.5,129.5C 1186.01,678.486 636.68,1227.65 87.5,1777C 65.0886,1793.25 42.4219,1793.58 19.5,1778C 9.07904,1768.98 2.41237,1757.81 -0.5,1744.5C -0.5,1738.83 -0.5,1733.17 -0.5,1727.5C 1.54565,1717.07 6.04565,1707.74 13,1699.5C 575.167,1137.33 1137.33,575.167 1699.5,13C 1707.98,5.7599 1717.64,1.2599 1728.5,-0.5 Z"/></g>
<g><path style="opacity:0.996" fill="#2d2c2b" d="M 2560.5,177.5 C 2733.83,177.333 2907.17,177.5 3080.5,178C 3097.7,180.873 3110.87,189.706 3120,204.5C 3122.8,210.232 3124.8,216.232 3126,222.5C 3126.67,554.833 3126.67,887.167 3126,1219.5C 3090.67,1184.17 3055.33,1148.83 3020,1113.5C 3019.5,837.167 3019.33,560.834 3019.5,284.5C 2886.83,284.5 2754.17,284.5 2621.5,284.5C 2621.83,427.502 2621.5,570.502 2620.5,713.5C 2585.18,678.68 2550.01,643.68 2515,608.5C 2514.33,479.167 2514.33,349.833 2515,220.5C 2521.02,196.314 2536.18,181.981 2560.5,177.5 Z"/></g>
<g><path style="opacity:0.996" fill="#2d2c2b" d="M 755.5,1239.5 C 1408.83,1239.5 2062.17,1239.5 2715.5,1239.5C 2715.5,1275.17 2715.5,1310.83 2715.5,1346.5C 2062.17,1346.5 1408.83,1346.5 755.5,1346.5C 755.5,1310.83 755.5,1275.17 755.5,1239.5 Z"/></g>
<g><path style="opacity:0.998" fill="#2d2c2b" d="M 756.5,2430.5 C 756.5,2395.17 756.5,2359.83 756.5,2324.5C 979.334,2324.83 1202,2324.5 1424.5,2323.5C 1450.02,2321.82 1465.52,2308.48 1471,2283.5C 1471.5,2058.17 1471.67,1832.83 1471.5,1607.5C 1507.17,1607.5 1542.83,1607.5 1578.5,1607.5C 1578.67,1834.83 1578.5,2062.17 1578,2289.5C 1571.72,2344.6 1544.55,2385.77 1496.5,2413C 1478.27,2422.39 1458.94,2428.06 1438.5,2430C 1211.17,2430.5 983.834,2430.67 756.5,2430.5 Z"/></g>
<g><path style="opacity:0.995" fill="#2d2c2b" d="M 1892.5,2429.5 C 1893.5,2394.67 1893.83,2359.67 1893.5,2324.5C 2116,2324.83 2338.33,2324.5 2560.5,2323.5C 2582.04,2322.39 2597.04,2311.89 2605.5,2292C 2606.71,2288.25 2607.54,2284.42 2608,2280.5C 2608.5,2056.17 2608.67,1831.83 2608.5,1607.5C 2644.17,1607.5 2679.83,1607.5 2715.5,1607.5C 2715.67,1832.83 2715.5,2058.17 2715,2283.5C 2709.72,2347.09 2678.22,2392.26 2620.5,2419C 2605.7,2424.87 2590.37,2428.53 2574.5,2430C 2347,2430.83 2119.67,2430.67 1892.5,2429.5 Z"/></g>
<g><path style="opacity:0.998" fill="#2d2c2b" d="M 1044.5,1644.5 C 1074.56,1642.43 1094.72,1655.43 1105,1683.5C 1106.48,1739.46 1106.98,1795.46 1106.5,1851.5C 1159.83,1851.33 1213.17,1851.5 1266.5,1852C 1296.12,1857.29 1312.12,1874.96 1314.5,1905C 1312.94,1931.46 1299.61,1948.8 1274.5,1957C 1218.54,1958.48 1162.54,1958.98 1106.5,1958.5C 1106.67,2013.17 1106.5,2067.83 1106,2122.5C 1099.02,2149.64 1081.52,2164.31 1053.5,2166.5C 1022.73,2164.23 1004.89,2147.89 1000,2117.5C 999.5,2064.5 999.333,2011.5 999.5,1958.5C 943.462,1958.98 887.462,1958.48 831.5,1957C 801.047,1945.61 788.547,1923.78 794,1891.5C 800.238,1871.6 813.404,1858.76 833.5,1853C 888.805,1851.53 944.138,1851.03 999.5,1851.5C 999.025,1796.47 999.525,1741.47 1001,1686.5C 1007.23,1663.77 1021.73,1649.77 1044.5,1644.5 Z"/></g>
<g><path style="opacity:0.998" fill="#2d2c2b" d="M 409.5,3543.5 C 403.167,3543.5 396.833,3543.5 390.5,3543.5C 366.847,3538.01 352.347,3523.35 347,3499.5C 346.333,2926.17 346.333,2352.83 347,1779.5C 353.572,1751.8 371.072,1737.13 399.5,1735.5C 425.378,1736.36 442.545,1749.02 451,1773.5C 451.945,1777.11 452.612,1780.78 453,1784.5C 453.667,2354.83 453.667,2925.17 453,3495.5C 448.738,3520.92 434.238,3536.92 409.5,3543.5 Z"/></g>
<g><path style="opacity:0.997" fill="#2d2c2b" d="M 3082.5,3543.5 C 3076.17,3543.5 3069.83,3543.5 3063.5,3543.5C 3039.2,3537.03 3024.7,3521.37 3020,3496.5C 3019.33,2925.17 3019.33,2353.83 3020,1782.5C 3023.89,1759.27 3037.06,1744.11 3059.5,1737C 3084.65,1731.71 3104.49,1739.54 3119,1760.5C 3122.52,1766.39 3124.85,1772.73 3126,1779.5C 3126.67,2352.83 3126.67,2926.17 3126,3499.5C 3120.65,3523.35 3106.15,3538.02 3082.5,3543.5 Z"/></g>
<g><path style="opacity:0.999" fill="#2d2c2b" d="M 1976.5,1851.5 C 2118.5,1851.33 2260.5,1851.5 2402.5,1852C 2427.89,1856.06 2443.72,1870.56 2450,1895.5C 2452.89,1928.59 2438.39,1949.42 2406.5,1958C 2262.17,1958.67 2117.83,1958.67 1973.5,1958C 1945.8,1951.46 1930.8,1933.96 1928.5,1905.5C 1930.83,1875.18 1946.83,1857.18 1976.5,1851.5 Z"/></g>
<g><path style="opacity:0.361" fill="#2d2a2a" d="M 1424.5,2323.5 C 1202,2324.5 979.334,2324.83 756.5,2324.5C 756.5,2359.83 756.5,2395.17 756.5,2430.5C 755.502,2395 755.168,2359.34 755.5,2323.5C 978.5,2323.5 1201.5,2323.5 1424.5,2323.5 Z"/></g>
<g><path style="opacity:0.361" fill="#2d2a2a" d="M 2560.5,2323.5 C 2338.33,2324.5 2116,2324.83 1893.5,2324.5C 1893.83,2359.67 1893.5,2394.67 1892.5,2429.5C 1892.5,2394.17 1892.5,2358.83 1892.5,2323.5C 2115.17,2323.5 2337.83,2323.5 2560.5,2323.5 Z"/></g>
<g><path style="opacity:0.997" fill="#2d2c2b" d="M 1440.5,3543.5 C 1212.5,3543.5 984.5,3543.5 756.5,3543.5C 756.5,3508.17 756.5,3472.83 756.5,3437.5C 979.334,3437.83 1202,3437.5 1424.5,3436.5C 1450,3434.84 1465.5,3421.5 1471,3396.5C 1471.5,3171.5 1471.67,2946.5 1471.5,2721.5C 1507.17,2721.5 1542.83,2721.5 1578.5,2721.5C 1578.67,2948.83 1578.5,3176.17 1578,3403.5C 1568.85,3471.65 1531.68,3516.48 1466.5,3538C 1457.76,3540.18 1449.1,3542.01 1440.5,3543.5 Z"/></g>
<g><path style="opacity:0.994" fill="#2d2c2b" d="M 2577.5,3543.5 C 2349.17,3543.5 2120.83,3543.5 1892.5,3543.5C 1892.5,3507.83 1892.5,3472.17 1892.5,3436.5C 2118.17,3436.67 2343.83,3436.5 2569.5,3436C 2592.14,3430.7 2604.97,3416.53 2608,3393.5C 2608.5,3169.5 2608.67,2945.5 2608.5,2721.5C 2644.17,2721.5 2679.83,2721.5 2715.5,2721.5C 2715.67,2946.5 2715.5,3171.5 2715,3396.5C 2709.95,3457.79 2680.12,3502.29 2625.5,3530C 2609.99,3536.71 2593.99,3541.21 2577.5,3543.5 Z"/></g>
<g><path style="opacity:0.994" fill="#2d2c2b" d="M 2182.5,2755.5 C 2213.14,2754.23 2235.3,2767.23 2249,2794.5C 2258.92,2822.55 2253.42,2847.05 2232.5,2868C 2209.5,2885.52 2184.84,2888.19 2158.5,2876C 2129.97,2857.41 2120.13,2831.58 2129,2798.5C 2138.8,2774.03 2156.63,2759.7 2182.5,2755.5 Z"/></g>
<g><path style="opacity:0.997" fill="#2d2c2b" d="M 897.5,2818.5 C 912.895,2816.68 926.895,2820.18 939.5,2829C 977.333,2866.83 1015.17,2904.67 1053,2942.5C 1089.83,2905.67 1126.67,2868.83 1163.5,2832C 1176.76,2820.58 1192.09,2816.25 1209.5,2819C 1234.23,2824.39 1248.73,2839.56 1253,2864.5C 1254.67,2880.16 1250.67,2894.16 1241,2906.5C 1203.65,2943.68 1166.49,2981.01 1129.5,3018.5C 1166.82,3056.32 1204.32,3093.99 1242,3131.5C 1256.08,3151.84 1257.08,3172.84 1245,3194.5C 1225.82,3218.87 1201.98,3224.71 1173.5,3212C 1169.22,3209.38 1165.22,3206.38 1161.5,3203C 1125.33,3166.83 1089.17,3130.67 1053,3094.5C 1015.83,3131.67 978.667,3168.83 941.5,3206C 921.585,3220.64 900.585,3222.31 878.5,3211C 858.768,3197.35 850.601,3178.52 854,3154.5C 856.135,3145.23 860.135,3136.9 866,3129.5C 903.167,3092.33 940.333,3055.17 977.5,3018C 939.667,2980.17 901.833,2942.33 864,2904.5C 854.691,2891.63 851.358,2877.3 854,2861.5C 859.76,2838.24 874.26,2823.91 897.5,2818.5 Z"/></g>
<g><path style="opacity:0.998" fill="#2d2c2b" d="M 1980.5,2964.5 C 2123.19,2964.02 2265.85,2964.52 2408.5,2966C 2438.95,2975.14 2452.79,2995.64 2450,3027.5C 2444.91,3050.92 2430.75,3065.42 2407.5,3071C 2262.17,3071.67 2116.83,3071.67 1971.5,3071C 1944.96,3063.62 1930.63,3046.12 1928.5,3018.5C 1931.33,2986.34 1948.66,2968.34 1980.5,2964.5 Z"/></g>
<g><path style="opacity:0.994" fill="#2d2c2b" d="M 2179.5,3153.5 C 2218.74,3151.01 2243.24,3168.68 2253,3206.5C 2256.58,3239.52 2243.41,3263.02 2213.5,3277C 2180.03,3287.5 2153.53,3278.33 2134,3249.5C 2119.3,3218.2 2124.46,3190.7 2149.5,3167C 2158.57,3160.26 2168.57,3155.76 2179.5,3153.5 Z"/></g>
<g><path style="opacity:0.173" fill="#292929" d="M 1424.5,3436.5 C 1202,3437.5 979.334,3437.83 756.5,3437.5C 756.5,3472.83 756.5,3508.17 756.5,3543.5C 756.167,3543.5 755.833,3543.5 755.5,3543.5C 755.5,3507.83 755.5,3472.17 755.5,3436.5C 978.5,3436.5 1201.5,3436.5 1424.5,3436.5 Z"/></g>
</svg>
