<?xml version="1.0" encoding="UTF-8"?>
<!DOCTYPE svg PUBLIC "-//W3C//DTD SVG 1.1//EN" "http://www.w3.org/Graphics/SVG/1.1/DTD/svg11.dtd">
<!-- Creator: CorelDRAW 2021.5 -->
<svg xmlns="http://www.w3.org/2000/svg" xml:space="preserve" width="337.123mm" height="300mm" version="1.1" style="shape-rendering:geometricPrecision; text-rendering:geometricPrecision; image-rendering:optimizeQuality; fill-rule:evenodd; clip-rule:evenodd"
viewBox="0 0 10762.18 9577.08"
 xmlns:xlink="http://www.w3.org/1999/xlink"
 xmlns:xodm="http://www.corel.com/coreldraw/odm/2003">
 <defs>
  <style type="text/css">
   <![CDATA[
    .fil0 {fill:#FFFFFF;fill-rule:nonzero}
   ]]>
  </style>
 </defs>
 <g id="Layer_x0020_1">
  <metadata id="CorelCorpID_0Corel-Layer"/>
  <path class="fil0" d="M10585.27 9577.08l-10407.79 0c-98.01,0 -177.49,-79.48 -177.49,-177.48 0,-40.74 13.75,-78.26 36.85,-108.23l1855.57 -2857.89c33.83,-52.11 90.5,-80.48 148.35,-80.53l0 -0.58 1858.93 0 204.94 354.97 -1968.17 0 -1632.82 2514.79 9755.45 0 -1632.82 -2514.79 -1968.09 0 204.94 -354.97 1858.85 0c67.57,0 126.34,37.81 156.31,93.39l1855.32 2857.47c53.19,81.91 29.93,191.53 -51.98,244.72 -29.8,19.37 -63.3,28.59 -96.37,28.55l0 0.59zm-6568.83 -6707.75c-70.42,67.74 -182.51,65.56 -250.26,-4.86 -67.74,-70.42 -65.56,-182.51 4.86,-250.26l1487.65 -1425.57c68.75,-66.15 177.23,-65.6 245.39,0l1487.65 1425.57c70.42,67.74 72.6,179.83 4.86,250.26 -67.74,70.42 -179.83,72.6 -250.25,4.86l-1364.96 -1307.99 -1364.96 1307.99zm2150.18 233.99c0,-98.01 79.48,-177.48 177.48,-177.48 98.01,0 177.49,79.48 177.49,177.48l0 1214.85c0,98.01 -79.48,177.48 -177.49,177.48l-1926.88 0c-98.01,0 -177.49,-79.48 -177.49,-177.48l0 -1214.85c0,-98.01 79.48,-177.48 177.49,-177.48 98.01,0 177.48,79.48 177.48,177.48l0 1037.36 1571.91 0 0 -1037.36zm1656.25 -306.84c0,-321.06 -61.28,-626.52 -172.54,-905.28 -180.21,-450.25 -490.4,-834.64 -884.11,-1106.28 -392.99,-271.13 -870.19,-429.96 -1385.04,-429.96 -323.36,0 -661.1,62.38 -1001.65,198.44l-8.8 3.27c-280.18,113.18 -528.93,280.02 -736.3,488.57 -211.32,212.48 -379.66,468.52 -494.77,755.46 -158.12,392.23 -216.97,777.47 -195.72,1140.19 22.89,390.68 138.88,755.96 323.65,1076.14 4.11,7.13 7.63,14.42 10.61,21.8l1964.77 3403.46c15.21,25.53 35.13,44.94 57.43,57.89 24.15,14.04 52.32,21.13 80.99,21.13l0 0.71c27.79,0 55.96,-7.34 80.99,-21.88 22.26,-12.95 42.21,-32.32 57.14,-58.01l1964.31 -3402c3.48,-8.8 7.71,-17.48 12.74,-25.86l2.68 -4.36c103.08,-180.46 184.95,-376.39 240.74,-584.06 53.82,-200.12 82.87,-411.05 82.87,-629.36zm155.77 -1036.19c128.48,321.56 199.2,671.33 199.2,1036.19 0,248.95 -33.45,490.53 -95.37,720.83 -61.83,230.05 -153.05,449.37 -268.4,653.89 -3.06,7.71 -6.71,15.34 -10.98,22.76l-1977.14 3425.64c-47.5,81.7 -112.34,144.12 -186.08,186.96 -78.98,45.9 -168.68,68.96 -258.47,69l0 0.72c-88.95,0 -178.62,-23.27 -258.47,-69.67 -73.78,-42.88 -138.58,-105.3 -186.08,-187 0,-0.12 -1810.01,-3156.73 -1975.76,-3422.87 -5.2,-8.68 -9.56,-17.65 -13.08,-26.74 -204.02,-361.26 -331.95,-771.56 -357.61,-1209.65 -24.14,-412.14 42.17,-848.56 220.7,-1291.35 132.88,-331.2 327.59,-627.19 572.4,-873.33 240.15,-241.49 528.97,-435.03 855.14,-566.83l9.18 -3.98c385.86,-154.18 767.95,-224.85 1133.36,-224.85 588.2,0 1134.78,182.43 1586.08,493.76 450.54,310.87 805.47,750.59 1011.37,1265.82l0 0.71z"/>
 </g>
</svg>
