<?xml version="1.0" encoding="UTF-8"?>
<!DOCTYPE svg PUBLIC "-//W3C//DTD SVG 1.1//EN" "http://www.w3.org/Graphics/SVG/1.1/DTD/svg11.dtd">
<svg xmlns="http://www.w3.org/2000/svg" version="1.1" width="3411px" height="3544px" style="shape-rendering:geometricPrecision; text-rendering:geometricPrecision; image-rendering:optimizeQuality; fill-rule:evenodd; clip-rule:evenodd" xmlns:xlink="http://www.w3.org/1999/xlink">
<g><path style="opacity:0.996" fill="#FFFFFF" d="M 1353.5,-0.5 C 1372.5,-0.5 1391.5,-0.5 1410.5,-0.5C 1576.04,12.8393 1709.87,84.506 1812,214.5C 1908.9,345.984 1941.4,492.151 1909.5,653C 2079.69,688.337 2215.19,776.171 2316,916.5C 2417.69,1067.28 2453.36,1232.62 2423,1412.5C 2399.22,1533.39 2345.89,1638.73 2263,1728.5C 2205.74,1791.11 2138.91,1840.61 2062.5,1877C 2004.68,1902.87 1944.34,1920.21 1881.5,1929C 1823.77,1936.89 1765.77,1940.89 1707.5,1941C 1620.5,1940.57 1533.5,1939.73 1446.5,1938.5C 1446.5,1899.5 1446.5,1860.5 1446.5,1821.5C 1565.5,1821.67 1684.5,1821.5 1803.5,1821C 1979.94,1811.39 2119.11,1735.22 2221,1592.5C 2314.67,1451.14 2339.34,1298.48 2295,1134.5C 2245.49,985.311 2149.99,876.478 2008.5,808C 1946.72,780.388 1882.05,763.721 1814.5,758C 1794.54,752.712 1783.04,739.879 1780,719.5C 1778.56,702.276 1779.89,685.276 1784,668.5C 1808.12,595.596 1812.12,521.596 1796,446.5C 1772.21,351.709 1722.38,273.875 1646.5,213C 1529.76,123.183 1399.76,96.183 1256.5,132C 1150.9,166.28 1068.73,230.447 1010,324.5C 979.896,375.146 961.562,429.812 955,488.5C 952.997,510.542 950.663,532.542 948,554.5C 937.987,590.267 914.821,603.434 878.5,594C 859.463,589.491 840.463,584.824 821.5,580C 710.829,560.279 617.329,591.446 541,673.5C 476.932,748.764 454.265,835.097 473,932.5C 478.339,950.516 483.672,968.516 489,986.5C 492.01,1004.97 485.843,1019.47 470.5,1030C 464.992,1033.25 459.325,1036.25 453.5,1039C 424.242,1049.53 394.909,1059.86 365.5,1070C 258.73,1111.77 184.23,1185.94 142,1292.5C 97.8382,1421.88 113.838,1543.21 190,1656.5C 264.092,1758.65 364.592,1813.48 491.5,1821C 713.166,1821.5 934.833,1821.67 1156.5,1821.5C 1156.5,1860.5 1156.5,1899.5 1156.5,1938.5C 932.5,1938.67 708.5,1938.5 484.5,1938C 310.85,1926.47 176.35,1848.63 81,1704.5C 28.864,1620.96 1.69731,1529.96 -0.5,1431.5C -0.5,1428.5 -0.5,1425.5 -0.5,1422.5C 6.40428,1254.84 76.4043,1120.67 209.5,1020C 254.096,987.868 302.763,963.368 355.5,946.5C 333.278,807.696 369.444,686.696 464,583.5C 568.247,479.67 693.247,439.67 839,463.5C 868.471,287.886 959.971,156.053 1113.5,68C 1188.59,27.5751 1268.59,4.74179 1353.5,-0.5 Z"/></g>
<g><path style="opacity:0.997" fill="#FFFFFF" d="M 3410.5,1971.5 C 3410.5,1993.17 3410.5,2014.83 3410.5,2036.5C 3408.28,2158.9 3392.12,2279.56 3362,2398.5C 3336,2499.87 3296,2595.2 3242,2684.5C 3187.47,2772.36 3117.31,2845.19 3031.5,2903C 2966.49,2944.5 2896.15,2973.33 2820.5,2989.5C 2820.5,2949.17 2820.5,2908.83 2820.5,2868.5C 2927.36,2838.84 3016.52,2781.84 3088,2697.5C 3147.77,2624 3193.1,2542 3224,2451.5C 3261.61,2338.84 3283.61,2223.17 3290,2104.5C 3297.95,1978.61 3290.61,1853.61 3268,1729.5C 3242.59,1592.27 3205.59,1458.27 3157,1327.5C 3088.92,1146.34 3007.59,971.338 2913,802.5C 2840.01,671.8 2761.01,545.133 2676,422.5C 2578.9,562.381 2489.73,707.548 2408.5,858C 2405.91,857.454 2403.74,855.954 2402,853.5C 2376,826.167 2350,798.833 2324,771.5C 2412.84,606.052 2512.17,447.386 2622,295.5C 2640.44,266.906 2665.94,257.74 2698.5,268C 2708.19,272.101 2716.36,278.268 2723,286.5C 2898.75,529.499 3049.42,788.499 3175,1063.5C 3239.58,1205.7 3293.25,1352.03 3336,1502.5C 3372.45,1631.18 3395.95,1762.18 3406.5,1895.5C 3408.11,1920.98 3409.44,1946.31 3410.5,1971.5 Z"/></g>
<g><path style="opacity:0.999" fill="#FFFFFF" d="M 1358.5,2316.5 C 1320.34,2315.5 1282,2315.17 1243.5,2315.5C 1243.83,1715.33 1243.5,1115.33 1242.5,515.5C 1243.34,484.164 1259.01,464.998 1289.5,458C 1315.76,453.729 1336.6,462.229 1352,483.5C 1355.73,489.677 1358.06,496.344 1359,503.5C 1359.83,1108 1359.67,1712.33 1358.5,2316.5 Z"/></g>
<g><path style="opacity:0.227" fill="#FFFFFF" d="M 1242.5,515.5 C 1243.5,1115.33 1243.83,1715.33 1243.5,2315.5C 1282,2315.17 1320.34,2315.5 1358.5,2316.5C 1319.83,2316.5 1281.17,2316.5 1242.5,2316.5C 1242.5,1716.17 1242.5,1115.83 1242.5,515.5 Z"/></g>
<g><path style="opacity:0.996" fill="#FFFFFF" d="M 739.5,772.5 C 764.084,771.043 783.251,780.377 797,800.5C 799.849,805.866 801.849,811.532 803,817.5C 804.623,923.289 850.123,1003.79 939.5,1059C 996.742,1091.59 1058.41,1107.59 1124.5,1107C 1143.07,1111.9 1155.57,1123.4 1162,1141.5C 1170.21,1167.77 1164.71,1190.61 1145.5,1210C 1133.02,1219.1 1119.02,1223.27 1103.5,1222.5C 977.046,1219.67 870.546,1172.67 784,1081.5C 721.119,1010.58 688.619,927.41 686.5,832C 688.211,797.796 705.878,777.963 739.5,772.5 Z"/></g>
<g><path style="opacity:0.997" fill="#FFFFFF" d="M 2724.5,863.5 C 2752.94,860.633 2773.44,871.966 2786,897.5C 2876.97,1061.1 2954.64,1230.77 3019,1406.5C 3062.48,1526.62 3095.15,1649.62 3117,1775.5C 3144.56,1941.53 3142.56,2107.19 3111,2272.5C 3096.03,2350.75 3070.7,2425.42 3035,2496.5C 3007.25,2550.6 2970.75,2598.1 2925.5,2639C 2894.29,2665.79 2859.62,2687.29 2821.5,2703.5C 2820.33,2659.17 2820.17,2614.84 2821,2570.5C 2859.27,2543.57 2890.6,2510.24 2915,2470.5C 2947.44,2416.22 2971.1,2358.22 2986,2296.5C 3012.65,2182.67 3023.32,2067.34 3018,1950.5C 3011.32,1835.11 2992.32,1721.77 2961,1610.5C 2923.86,1479.57 2877.19,1352.24 2821,1228.5C 2778.01,1133.84 2731.34,1041.18 2681,950.5C 2666.13,919.156 2672.63,893.323 2700.5,873C 2708.2,868.718 2716.2,865.551 2724.5,863.5 Z"/></g>
<g><path style="opacity:0.996" fill="#FFFFFF" d="M 1953.5,1105.5 C 1996.14,1105.97 2017.47,1127.47 2017.5,1170C 2011.66,1326.72 1944,1448.39 1814.5,1535C 1718.85,1594.43 1614.51,1623.43 1501.5,1622C 1471.85,1619.01 1454.35,1602.85 1449,1573.5C 1445.47,1548.05 1453.97,1527.88 1474.5,1513C 1480.39,1509.48 1486.73,1507.15 1493.5,1506C 1566.69,1506.9 1636.69,1492.56 1703.5,1463C 1832.47,1400.59 1898.31,1297.43 1901,1153.5C 1906.91,1124.75 1924.41,1108.75 1953.5,1105.5 Z"/></g>
<g><path style="opacity:0.996" fill="#FFFFFF" d="M 2056.5,2017.5 C 2057.82,2020.94 2058.49,2024.77 2058.5,2029C 2059.92,2133.45 2072.09,2236.62 2095,2338.5C 2115.19,2427.73 2147.19,2512.4 2191,2592.5C 2228.73,2659.92 2277.23,2718.76 2336.5,2769C 2394.2,2815.85 2459.2,2849.02 2531.5,2868.5C 2531.5,2908.83 2531.5,2949.17 2531.5,2989.5C 2397.27,2959.83 2284.1,2894.5 2192,2793.5C 2127.99,2720.56 2077.33,2638.89 2040,2548.5C 1999.06,2447.76 1971.4,2343.42 1957,2235.5C 1948.39,2172.11 1943.23,2108.44 1941.5,2044.5C 1980.79,2039.09 2019.13,2030.09 2056.5,2017.5 Z"/></g>
<g><path style="opacity:0.998" fill="#FFFFFF" d="M 1744.5,2301.5 C 1779.72,2300.22 1800.55,2316.89 1807,2351.5C 1808.37,2358.45 1809.37,2365.45 1810,2372.5C 1809.59,2563.16 1809.42,2753.83 1809.5,2944.5C 1770.5,2944.5 1731.5,2944.5 1692.5,2944.5C 1692.5,2900.5 1692.5,2856.5 1692.5,2812.5C 1297.83,2812.5 903.167,2812.5 508.5,2812.5C 508.5,2850.83 508.5,2889.17 508.5,2927.5C 469.5,2927.5 430.5,2927.5 391.5,2927.5C 391.007,2733.14 391.507,2538.8 393,2344.5C 400.229,2320.27 416.396,2306.44 441.5,2303C 465.028,2300.5 484.195,2308.33 499,2326.5C 502.636,2332.4 505.303,2338.74 507,2345.5C 508.438,2369.13 508.938,2392.79 508.5,2416.5C 903.167,2416.67 1297.83,2416.5 1692.5,2416C 1690.9,2394.5 1691.4,2373 1694,2351.5C 1698.24,2321.76 1715.08,2305.09 1744.5,2301.5 Z M 508.5,2534.5 C 903.167,2534.5 1297.83,2534.5 1692.5,2534.5C 1692.5,2588.17 1692.5,2641.83 1692.5,2695.5C 1297.83,2695.5 903.167,2695.5 508.5,2695.5C 508.5,2641.83 508.5,2588.17 508.5,2534.5 Z"/></g>
<g><path style="opacity:0.999" fill="#FFFFFF" d="M 2684.5,3543.5 C 2678.83,3543.5 2673.17,3543.5 2667.5,3543.5C 2640.49,3538.99 2623.99,3523.32 2618,3496.5C 2617.33,3173.17 2617.33,2849.83 2618,2526.5C 2625.11,2495.93 2644.44,2480.26 2676,2479.5C 2708.9,2480.59 2728.23,2497.26 2734,2529.5C 2734.67,2850.83 2734.67,3172.17 2734,3493.5C 2729.36,3521.97 2712.86,3538.63 2684.5,3543.5 Z"/></g>
<g><path style="opacity:1" fill="#FFFFFF" d="M 223.5,3027.5 C 802.833,3027.33 1382.17,3027.5 1961.5,3028C 1996.8,3031.47 2015.13,3050.97 2016.5,3086.5C 2015.4,3121.1 1997.73,3140.6 1963.5,3145C 1383.17,3145.67 802.833,3145.67 222.5,3145C 188.213,3140.55 170.547,3121.05 169.5,3086.5C 170.864,3051.47 188.864,3031.81 223.5,3027.5 Z"/></g>
<g><path style="opacity:0.996" fill="#FFFFFF" d="M 458.5,3543.5 C 452.833,3543.5 447.167,3543.5 441.5,3543.5C 414.044,3538.88 397.544,3522.88 392,3495.5C 391.5,3396.17 391.333,3296.83 391.5,3197.5C 430.5,3197.5 469.5,3197.5 508.5,3197.5C 508.667,3296.5 508.5,3395.5 508,3494.5C 502.906,3522.43 486.406,3538.76 458.5,3543.5 Z"/></g>
<g><path style="opacity:0.998" fill="#FFFFFF" d="M 1759.5,3543.5 C 1753.5,3543.5 1747.5,3543.5 1741.5,3543.5C 1715.15,3538.91 1698.99,3523.58 1693,3497.5C 1692.5,3397.5 1692.33,3297.5 1692.5,3197.5C 1731.5,3197.5 1770.5,3197.5 1809.5,3197.5C 1809.98,3297.86 1809.48,3398.19 1808,3498.5C 1801.9,3524.44 1785.73,3539.44 1759.5,3543.5 Z"/></g>
</svg>
