<?xml version="1.0" encoding="UTF-8"?>
<!DOCTYPE svg PUBLIC "-//W3C//DTD SVG 1.1//EN" "http://www.w3.org/Graphics/SVG/1.1/DTD/svg11.dtd">
<svg xmlns="http://www.w3.org/2000/svg" version="1.1" width="3548px" height="3545px" style="shape-rendering:geometricPrecision; text-rendering:geometricPrecision; image-rendering:optimizeQuality; fill-rule:evenodd; clip-rule:evenodd" xmlns:xlink="http://www.w3.org/1999/xlink">
<g><path style="opacity:0.997" fill="#2d2c2b" d="M 1471.5,-0.5 C 1479.83,-0.5 1488.17,-0.5 1496.5,-0.5C 1616.68,7.3139 1709.51,61.3139 1775,161.5C 1803.45,207.848 1820.12,258.181 1825,312.5C 1826.47,454.822 1826.97,597.156 1826.5,739.5C 1789.5,739.5 1752.5,739.5 1715.5,739.5C 1715.97,599.488 1715.47,459.488 1714,319.5C 1702.43,232.296 1657.26,169.463 1578.5,131C 1499.98,98.8331 1424.98,105.5 1353.5,151C 1292.42,194.636 1258.92,254.136 1253,329.5C 1252.5,719.167 1252.33,1108.83 1252.5,1498.5C 1597.83,1498.5 1943.17,1498.5 2288.5,1498.5C 2288.33,1109.17 2288.5,719.833 2289,330.5C 2296.77,205.035 2353.94,109.868 2460.5,45C 2509.67,17.3285 2562.34,2.16187 2618.5,-0.5C 2626.83,-0.5 2635.17,-0.5 2643.5,-0.5C 2745.52,5.59543 2829.69,47.2621 2896,124.5C 2942.64,182.052 2968.31,248.052 2973,322.5C 2973.5,460.833 2973.67,599.166 2973.5,737.5C 2936.5,737.5 2899.5,737.5 2862.5,737.5C 2862.98,597.151 2862.48,456.818 2861,316.5C 2847.47,225.311 2798.3,161.811 2713.5,126C 2627.24,96.7627 2548.91,110.763 2478.5,168C 2429.33,212.858 2403.16,268.692 2400,335.5C 2399.67,1159.83 2399.33,1984.17 2399,2808.5C 2392.01,2836.98 2373.85,2852.31 2344.5,2854.5C 2316.04,2852.54 2297.88,2837.87 2290,2810.5C 2288.51,2626.86 2288.01,2443.19 2288.5,2259.5C 1943.17,2259.5 1597.83,2259.5 1252.5,2259.5C 1252.99,2443.87 1252.49,2628.2 1251,2812.5C 1246.25,2830.26 1235.41,2842.76 1218.5,2850C 1185.01,2860.17 1160.51,2849.67 1145,2818.5C 1143.53,2814.28 1142.53,2809.94 1142,2805.5C 1141,1973.82 1141.34,1142.15 1143,310.5C 1155.71,199.246 1208.54,113.079 1301.5,52C 1353.72,19.8696 1410.39,2.36961 1471.5,-0.5 Z M 1252.5,1609.5 C 1597.83,1609.5 1943.17,1609.5 2288.5,1609.5C 2288.5,1789.17 2288.5,1968.83 2288.5,2148.5C 1943.17,2148.5 1597.83,2148.5 1252.5,2148.5C 1252.5,1968.83 1252.5,1789.17 1252.5,1609.5 Z"/></g>
<g><path style="opacity:0.992" fill="#2d2c2b" d="M 52.5,848.5 C 379.167,848.5 705.833,848.5 1032.5,848.5C 1032.5,885.5 1032.5,922.5 1032.5,959.5C 704.5,959.667 376.5,959.5 48.5,959C 20.0241,952.018 4.69076,933.851 2.5,904.5C 5.39472,873.294 22.0614,854.627 52.5,848.5 Z"/></g>
<g><path style="opacity:0.991" fill="#2d2c2b" d="M 1361.5,848.5 C 1634.17,848.5 1906.83,848.5 2179.5,848.5C 2179.5,885.5 2179.5,922.5 2179.5,959.5C 1906.83,959.5 1634.17,959.5 1361.5,959.5C 1361.5,922.5 1361.5,885.5 1361.5,848.5 Z"/></g>
<g><path style="opacity:0.992" fill="#2d2c2b" d="M 3547.5,899.5 C 3547.5,902.5 3547.5,905.5 3547.5,908.5C 3543.61,935.564 3528.28,952.397 3501.5,959C 3170.83,959.5 2840.17,959.667 2509.5,959.5C 2509.5,922.5 2509.5,885.5 2509.5,848.5C 2838.83,848.333 3168.17,848.5 3497.5,849C 3526.47,853.806 3543.14,870.639 3547.5,899.5 Z"/></g>
<g><path style="opacity:0.996" fill="#2d2c2b" d="M -0.5,3083.5 C -0.5,3077.5 -0.5,3071.5 -0.5,3065.5C 5.6574,3038.85 22.3241,3023.35 49.5,3019C 115.582,3020.19 175.248,3001.52 228.5,2963C 240.455,2954.05 252.122,2944.71 263.5,2935C 297.934,2901.56 333.267,2869.23 369.5,2838C 443.923,2776.52 529.757,2746.35 627,2747.5C 718.117,2746.21 799.617,2773.04 871.5,2828C 886.126,2839.62 900.459,2851.62 914.5,2864C 942.231,2891.07 970.565,2917.4 999.5,2943C 1077.9,3010.1 1167.9,3032.77 1269.5,3011C 1304.25,3002.62 1336.25,2988.29 1365.5,2968C 1377.35,2959.24 1389.01,2950.24 1400.5,2941C 1429.02,2914.9 1457.36,2888.57 1485.5,2862C 1511.13,2839.03 1538.47,2818.36 1567.5,2800C 1630.39,2763.82 1698.22,2746.32 1771,2747.5C 1858.41,2746.09 1937.24,2770.92 2007.5,2822C 2019.12,2830.62 2030.45,2839.62 2041.5,2849C 2076.87,2882.04 2112.53,2914.7 2148.5,2947C 2226.09,3011.15 2314.43,3032.48 2413.5,3011C 2448.25,3002.62 2480.25,2988.29 2509.5,2968C 2521.35,2959.24 2533.01,2950.24 2544.5,2941C 2573.02,2914.9 2601.36,2888.57 2629.5,2862C 2663.66,2830.24 2701.66,2803.91 2743.5,2783C 2798.01,2758.66 2855.18,2746.83 2915,2747.5C 3012.24,2746.35 3098.08,2776.52 3172.5,2838C 3208.4,2868.89 3243.4,2900.89 3277.5,2934C 3303.76,2957.58 3332.76,2977.25 3364.5,2993C 3405.52,3011.27 3448.52,3019.94 3493.5,3019C 3524.48,3024.31 3541.14,3042.64 3543.5,3074C 3541.6,3103.57 3526.26,3121.9 3497.5,3129C 3404.87,3133.36 3321.54,3108.02 3247.5,3053C 3231.8,3040.81 3216.46,3028.14 3201.5,3015C 3173.36,2988.43 3145.02,2962.1 3116.5,2936C 3033.31,2864.75 2938.31,2842.75 2831.5,2870C 2788.48,2883.33 2750.15,2904.66 2716.5,2934C 2685.2,2962.3 2654.2,2990.97 2623.5,3020C 2587.42,3052.89 2547.09,3079.55 2502.5,3100C 2441.44,3124.1 2378.1,3133.77 2312.5,3129C 2230.41,3124.54 2157.41,3096.87 2093.5,3046C 2086.17,3040 2078.83,3034 2071.5,3028C 2036.13,2994.96 2000.47,2962.3 1964.5,2930C 1882.62,2863.42 1790.28,2843.42 1687.5,2870C 1644.5,2883.33 1606.16,2904.66 1572.5,2934C 1541.2,2962.3 1510.2,2990.97 1479.5,3020C 1445.97,3050.78 1408.64,3076.11 1367.5,3096C 1303.93,3123.18 1237.6,3134.18 1168.5,3129C 1090.52,3125.01 1020.52,3099.68 958.5,3053C 942.28,3040.72 926.613,3027.72 911.5,3014C 883.769,2986.93 855.435,2960.6 826.5,2935C 743.769,2864.44 649.436,2842.78 543.5,2870C 510.055,2880.06 479.388,2895.39 451.5,2916C 441.833,2923.67 432.167,2931.33 422.5,2939C 393.5,2966 364.5,2993 335.5,3020C 301.975,3050.78 264.641,3076.11 223.5,3096C 166.478,3121.12 106.812,3132.12 44.5,3129C 19.896,3123.23 4.89598,3108.06 -0.5,3083.5 Z"/></g>
<g><path style="opacity:0.996" fill="#2d2c2b" d="M 3490.5,3544.5 C 3486.83,3544.5 3483.17,3544.5 3479.5,3544.5C 3392.2,3544.01 3313.87,3517.51 3244.5,3465C 3230.54,3454.04 3216.87,3442.71 3203.5,3431C 3175.17,3404.67 3146.83,3378.33 3118.5,3352C 3035.36,3279.72 2940.03,3257.05 2832.5,3284C 2788.32,3297.74 2748.99,3319.74 2714.5,3350C 2686.57,3374.6 2659.23,3399.93 2632.5,3426C 2607.55,3448.96 2580.88,3469.63 2552.5,3488C 2490.69,3525.37 2423.69,3544.2 2351.5,3544.5C 2345.83,3544.5 2340.17,3544.5 2334.5,3544.5C 2244.79,3543.99 2164.79,3516.16 2094.5,3461C 2082.17,3450.67 2069.83,3440.33 2057.5,3430C 2023.36,3396.52 1988.03,3364.52 1951.5,3334C 1872.06,3275.7 1784.39,3259.03 1688.5,3284C 1655.78,3293.36 1625.78,3308.03 1598.5,3328C 1589.5,3335 1580.5,3342 1571.5,3349C 1542.56,3374.6 1514.23,3400.93 1486.5,3428C 1453.67,3458.09 1417.67,3483.75 1378.5,3505C 1324.34,3530.86 1267.34,3544.03 1207.5,3544.5C 1201.83,3544.5 1196.17,3544.5 1190.5,3544.5C 1100.79,3543.99 1020.79,3516.16 950.5,3461C 938.167,3450.67 925.833,3440.33 913.5,3430C 885.357,3403.43 857.024,3377.1 828.5,3351C 745.856,3279.34 651.189,3257.01 544.5,3284C 511.777,3293.36 481.777,3308.03 454.5,3328C 445.5,3335 436.5,3342 427.5,3349C 398.565,3374.6 370.231,3400.93 342.5,3428C 309.166,3458.66 272.5,3484.66 232.5,3506C 178.88,3531.15 122.547,3543.99 63.5,3544.5C 59.5,3544.5 55.5,3544.5 51.5,3544.5C 23.4048,3540.74 6.07143,3525.07 -0.5,3497.5C -0.5,3491.5 -0.5,3485.5 -0.5,3479.5C 4.76621,3455.4 19.4329,3440.23 43.5,3434C 111.277,3435.73 172.61,3417.07 227.5,3378C 239.121,3369.38 250.455,3360.38 261.5,3351C 294.566,3319.26 328.233,3288.26 362.5,3258C 447.361,3185.94 545.694,3154.27 657.5,3163C 737.872,3167.05 809.539,3193.72 872.5,3243C 884.167,3252.67 895.833,3262.33 907.5,3272C 938.199,3301.03 969.199,3329.7 1000.5,3358C 1081.75,3426.81 1174.42,3448.47 1278.5,3423C 1312.33,3413.58 1343.33,3398.58 1371.5,3378C 1380.5,3371 1389.5,3364 1398.5,3357C 1427.44,3331.4 1455.77,3305.07 1483.5,3278C 1508.88,3255.15 1535.88,3234.49 1564.5,3216C 1637.81,3173.61 1716.81,3155.94 1801.5,3163C 1885.96,3167.59 1960.63,3196.59 2025.5,3250C 2033.83,3257 2042.17,3264 2050.5,3271C 2081.53,3300.37 2112.87,3329.37 2144.5,3358C 2225.75,3426.81 2318.42,3448.47 2422.5,3423C 2467.06,3409.89 2506.73,3388.23 2541.5,3358C 2570.1,3332.73 2598.1,3306.73 2625.5,3280C 2650.45,3257.04 2677.12,3236.37 2705.5,3218C 2760.37,3184.38 2820.04,3166.04 2884.5,3163C 2999.29,3154.26 3099.62,3187.6 3185.5,3263C 3214.44,3288.6 3242.77,3314.93 3270.5,3342C 3299.7,3369.28 3332.36,3391.61 3368.5,3409C 3410.04,3426.37 3453.37,3434.7 3498.5,3434C 3523.98,3439.81 3538.81,3455.64 3543,3481.5C 3544.87,3507.61 3534.37,3526.77 3511.5,3539C 3504.65,3541.96 3497.65,3543.79 3490.5,3544.5 Z"/></g>
</svg>
