<?xml version="1.0" encoding="UTF-8"?>
<!DOCTYPE svg PUBLIC "-//W3C//DTD SVG 1.1//EN" "http://www.w3.org/Graphics/SVG/1.1/DTD/svg11.dtd">
<!-- Creator: CorelDRAW 2021.5 -->
<svg xmlns="http://www.w3.org/2000/svg" xml:space="preserve" width="325.566mm" height="299.999mm" version="1.1" style="shape-rendering:geometricPrecision; text-rendering:geometricPrecision; image-rendering:optimizeQuality; fill-rule:evenodd; clip-rule:evenodd"
viewBox="0 0 12020.31 11076.34"
 xmlns:xlink="http://www.w3.org/1999/xlink"
 xmlns:xodm="http://www.corel.com/coreldraw/odm/2003">
 <defs>
  <style type="text/css">
   <![CDATA[
    .fil0 {fill:#FFFFFF;fill-rule:nonzero}
   ]]>
  </style>
 </defs>
 <g id="Layer_x0020_1">
  <metadata id="CorelCorpID_0Corel-Layer"/>
  <path class="fil0" d="M5395.78 2745.33c-101.1,-1873.61 -2155.88,-2990.57 -3785.85,-2043.19 -1782.84,1036.21 -1627.16,3666.14 253.12,4489.15 967.82,423.63 1511.07,69.45 1690.96,172.5l0.25 -0.47 1148.43 658.71 -3.65 -1323.78c-0.34,-235.37 357.92,-236.26 358.26,0 0.3,221.18 35.56,1628.44 -18.69,1723.33 -49.23,86.1 -159.04,115.97 -245.14,66.73l-1359.21 -779.6c-582.67,114.65 -1181.7,44.6 -1714.54,-188.64 -2150.23,-941.23 -2326.26,-3944.71 -289.66,-5128.45 1709.91,-993.85 3883.76,-2.8 4272.09,1921.11 -115.16,133.17 -217.91,278.06 -306.39,432.6zm-3426.18 -1387.92l0 445.59 812.39 -812.69c69.83,-70.18 183.42,-70.52 253.59,-0.68l1583.96 1583.02c167.45,166.98 -86.06,420.66 -252.91,254.27l-1457.46 -1456.57 -1455.34 1455.89c-167.02,167.45 -420.66,-86.06 -254.27,-252.91l410.34 -410.51 0 -805.42 359.7 0zm759.67 1780.59l0 -179.85 359.71 0 0 1071 759.72 0 0 -1040.12c0,-236.77 359.7,-236.77 359.7,0l0 1399.82c-493.04,0 -986.08,0 -1479.13,0l0 -1250.85zm-1119.38 -2.72c0,-111.12 -25.79,-329.71 179.85,-329.71 205.64,0 179.85,218.59 179.85,329.71l0 893.86 489.98 0 0 359.7 -849.68 0 0 -1253.57zm7700.22 1274.42c-1051.37,265.83 -2285.9,-155.13 -2729.93,-1136.24 -96.94,-214.17 230.15,-362.25 327.33,-147.49 389.31,860.18 1592.54,1172.52 2317,935.19 131.76,-43.16 335.23,39.89 444.28,116.05 7.99,-1953.73 -2180.22,-2830.85 -3421.6,-1533.62 -491.68,513.81 -623.96,1103.7 -578.46,1800.13l81.68 461.4c187.84,363.74 506.55,51.1 574.05,325.89 114.05,463.56 310.13,855.8 558.07,1127.2l0.72 0c850.79,931.5 1817.67,96.89 2118.5,-1127.11 61.59,-250.66 296.45,-21.41 505.02,-229.98l0 -0.68c201.98,-201.98 89.12,-550.81 -196.68,-590.74zm-2820.62 2034.78c-221.1,-292.55 -372.87,-633 -474.9,-983.87 -361.06,-25.57 -626.08,-317.23 -671.28,-662.45 -117.87,-900.23 -18.14,-1708.5 645.37,-2401.87 1488.3,-1555.29 4039.99,-447.38 4039.99,1739.26 0,371.21 3.44,772.67 -211.16,1055.58l-56.46 63.59 -0.34 -0.34c-117.07,116.94 -274.41,193.36 -448.82,206.1 -108.74,374.74 -271.52,730.58 -515.51,1037.1l401.59 791.91 1928.67 286.17c528.68,81.56 927.72,589.13 891.36,1120.74l-152.88 2214.55c-16.01,236.18 -374.23,211.58 -358.26,-23.87l152.88 -2214.55c23.66,-346.28 -242.93,-688.91 -587.13,-742.51l-1858.54 -275 -573.07 2236.93c-99.78,281.72 -496.48,247.27 -550.85,-37 -40.57,-212.13 -312.42,-1462.05 -280.31,-1570.58l230.57 -898.11c58.49,-228.62 405.41,-139.71 347.04,88.52l-223.6 870.93 216.47 1119.38 509.01 -1991.07 -356.9 -703.73c-361.57,304.01 -823.99,434.42 -1278.88,269.05l-459.49 -269.27 -356.98 703.94 509.02 1991.07 216.47 -1119.38 -223.6 -870.93c-58.37,-228.23 288.55,-317.14 347.05,-88.52l236.18 988.55 0.42 0.08 -288.34 1489.78c-38.32,184.4 -246.67,275.55 -411.48,189.41 -117.96,-61.64 -124.72,-148.89 -143.75,-182.27l-566.7 -2216.79 -1866.4 276.36c-340.12,55.18 -602.51,399.59 -579.27,741.15l151.39 2214.55c15.89,235.54 -342.33,259.92 -358.26,23.87l-151.39 -2214.55c-36.32,-533.86 355.63,-1030.34 893.44,-1121.46l1926.63 -285.45 401.88 -792.55 -40.86 -52.46zm3046.13 3430.43c-236.77,0 -236.77,-359.7 0,-359.7l981.54 0c236.77,0 236.77,359.7 0,359.7l-981.54 0z"/>
 </g>
</svg>
