<?xml version="1.0" encoding="UTF-8"?>
<!DOCTYPE svg PUBLIC "-//W3C//DTD SVG 1.1//EN" "http://www.w3.org/Graphics/SVG/1.1/DTD/svg11.dtd">
<svg xmlns="http://www.w3.org/2000/svg" version="1.1" width="4184px" height="3545px" style="shape-rendering:geometricPrecision; text-rendering:geometricPrecision; image-rendering:optimizeQuality; fill-rule:evenodd; clip-rule:evenodd" xmlns:xlink="http://www.w3.org/1999/xlink">
<g><path style="opacity:0.997" fill="#2d2c2b" d="M 2090.5,-0.5 C 2091.83,-0.5 2093.17,-0.5 2094.5,-0.5C 2490.18,3.6691 2845.85,123.502 3161.5,359C 3428.84,564.376 3624.01,824.21 3747,1138.5C 3804.42,1289.54 3840.76,1445.54 3856,1606.5C 3927.71,1522.46 3999.04,1438.13 4070,1353.5C 4093.67,1329.36 4120.83,1324.52 4151.5,1339C 4169.87,1350.58 4180.53,1367.08 4183.5,1388.5C 4183.5,1392.5 4183.5,1396.5 4183.5,1400.5C 4181.75,1413.88 4176.59,1425.88 4168,1436.5C 4059.17,1564.67 3950.33,1692.83 3841.5,1821C 3815.52,1840.25 3788.85,1841.25 3761.5,1824C 3635.17,1717 3508.83,1610 3382.5,1503C 3358.49,1481.13 3352.33,1454.97 3364,1424.5C 3383.05,1392.37 3410.55,1381.87 3446.5,1393C 3453.34,1396.25 3459.67,1400.25 3465.5,1405C 3553.33,1479.5 3641.17,1554 3729,1628.5C 3699.55,1310.67 3588.88,1025.33 3397,772.5C 3186.43,501.54 2917.6,312.374 2590.5,205C 2424.53,152.909 2254.53,126.909 2080.5,127C 2047.35,119.048 2029.69,98.0478 2027.5,64C 2030.88,25.1209 2051.88,3.62087 2090.5,-0.5 Z"/></g>
<g><path style="opacity:0.998" fill="#2d2c2b" d="M 1494.5,1141.5 C 1537.08,1100.42 1579.25,1058.75 1621,1016.5C 1621.46,1015.91 1621.63,1015.24 1621.5,1014.5C 1676.92,960.584 1731.92,906.084 1786.5,851C 1786.27,850.601 1785.94,850.435 1785.5,850.5C 1873.99,761.174 1962.99,672.341 2052.5,584C 2079.61,566.765 2106.28,567.432 2132.5,586C 2503.33,956.833 2874.17,1327.67 3245,1698.5C 3259.42,1718.49 3262.42,1740.16 3254,1763.5C 3239.88,1792.32 3216.71,1805.15 3184.5,1802C 3173.36,1800.18 3163.36,1795.85 3154.5,1789C 2800.32,1434.65 2445.99,1080.49 2091.5,726.5C 1737.68,1079.82 1384.01,1433.32 1030.5,1787C 1011.04,1802.52 989.373,1806.52 965.5,1799C 934.204,1784.92 920.704,1760.75 925,1726.5C 927.101,1716.63 931.101,1707.63 937,1699.5C 1123.06,1513.61 1308.89,1327.61 1494.5,1141.5 Z"/></g>
<g><path style="opacity:0.998" fill="#2d2c2b" d="M 2870.5,1190.5 C 2870.5,1060.5 2870.5,930.5 2870.5,800.5C 2813.66,800.168 2757,800.501 2700.5,801.5C 2700.67,874.501 2700.5,947.501 2700,1020.5C 2657.67,978.167 2615.33,935.833 2573,893.5C 2572.33,840.167 2572.33,786.833 2573,733.5C 2576.8,701.031 2594.64,681.198 2626.5,674C 2732.5,673.333 2838.5,673.333 2944.5,674C 2974.24,680.405 2991.74,698.572 2997,728.5C 2997.67,924.833 2997.67,1121.17 2997,1317.5C 2954.63,1275.3 2912.47,1232.97 2870.5,1190.5 Z"/></g>
<g><path style="opacity:0.29" fill="#2a2828" d="M 2700.5,801.5 C 2757,800.501 2813.66,800.168 2870.5,800.5C 2870.5,930.5 2870.5,1060.5 2870.5,1190.5C 2869.5,1061 2869.17,931.334 2869.5,801.5C 2813.17,801.5 2756.83,801.5 2700.5,801.5 Z"/></g>
<g><path style="opacity:0.576" fill="#20201f" d="M 1785.5,850.5 C 1785.94,850.435 1786.27,850.601 1786.5,851C 1731.92,906.084 1676.92,960.584 1621.5,1014.5C 1675.83,959.5 1730.5,904.833 1785.5,850.5 Z"/></g>
<g><path style="opacity:0.573" fill="#20201f" d="M 1621.5,1014.5 C 1621.63,1015.24 1621.46,1015.91 1621,1016.5C 1579.25,1058.75 1537.08,1100.42 1494.5,1141.5C 1536.5,1098.83 1578.83,1056.5 1621.5,1014.5 Z"/></g>
<g><path style="opacity:0.996" fill="#2d2c2b" d="M 2067.5,1117.5 C 2096.48,1114.41 2118.64,1125.07 2134,1149.5C 2139.32,1159.14 2141.99,1169.47 2142,1180.5C 2142.17,1237.84 2142.67,1295.17 2143.5,1352.5C 2226.43,1366.54 2297.59,1402.88 2357,1461.5C 2387.88,1494.43 2411.54,1532.1 2428,1574.5C 2438.02,1603.42 2431.86,1628.25 2409.5,1649C 2391.4,1662.55 2371.4,1666.22 2349.5,1660C 2332.75,1654.58 2320.25,1644.08 2312,1628.5C 2290.55,1569.05 2251.05,1526.22 2193.5,1500C 2121.89,1469.12 2049.22,1466.46 1975.5,1492C 1937.73,1505.61 1907.89,1529.11 1886,1562.5C 1866.4,1595.49 1860.07,1630.83 1867,1668.5C 1874.82,1690.63 1888.32,1708.47 1907.5,1722C 1938.6,1743.88 1972.6,1759.88 2009.5,1770C 2021.12,1773.16 2032.79,1776.16 2044.5,1779C 2072.86,1784.23 2101.19,1789.56 2129.5,1795C 2192.19,1808.11 2250.19,1832.11 2303.5,1867C 2356.8,1902.77 2394.97,1950.6 2418,2010.5C 2448.54,2112.8 2428.88,2204.13 2359,2284.5C 2300.42,2347.21 2228.25,2383.54 2142.5,2393.5C 2142.67,2450.5 2142.5,2507.5 2142,2564.5C 2139.67,2594.51 2124.33,2614.51 2096,2624.5C 2058.02,2632.01 2031.69,2618.01 2017,2582.5C 2016.21,2579.53 2015.54,2576.53 2015,2573.5C 2014.5,2512.83 2014.33,2452.17 2014.5,2391.5C 1930.95,2380.37 1856.62,2348.54 1791.5,2296C 1745.93,2256.68 1711.76,2209.18 1689,2153.5C 1683.53,2139.81 1680.03,2125.64 1678.5,2111C 1681.24,2076.27 1699.57,2055.27 1733.5,2048C 1766.74,2045.28 1789.91,2059.12 1803,2089.5C 1809.26,2115.68 1820.59,2139.35 1837,2160.5C 1883.27,2215.57 1942.1,2249.4 2013.5,2262C 2057.74,2270.98 2102.08,2271.65 2146.5,2264C 2200.49,2253.12 2243.99,2225.95 2277,2182.5C 2315.84,2124.68 2314.84,2067.68 2274,2011.5C 2247.82,1981.66 2216.32,1959.16 2179.5,1944C 2156.5,1934.33 2132.83,1926.67 2108.5,1921C 2078.9,1915.01 2049.23,1909.34 2019.5,1904C 1958.52,1891.46 1901.52,1869.13 1848.5,1837C 1750.59,1772.01 1716.43,1682.18 1746,1567.5C 1764.23,1503.29 1800.4,1451.79 1854.5,1413C 1902.75,1379.63 1956.08,1359.13 2014.5,1351.5C 2014.02,1289.46 2014.52,1227.46 2016,1165.5C 2023.75,1139.25 2040.91,1123.25 2067.5,1117.5 Z"/></g>
<g><path style="opacity:0.999" fill="#2d2c2b" d="M 1245.5,1674.5 C 1281.68,1674.86 1304.18,1692.52 1313,1727.5C 1313.5,2077.83 1313.67,2428.17 1313.5,2778.5C 1832.17,2778.5 2350.83,2778.5 2869.5,2778.5C 2869.33,2429.83 2869.5,2081.17 2870,1732.5C 2876.11,1696.44 2897.44,1677.1 2934,1674.5C 2968.69,1677.19 2989.69,1695.52 2997,1729.5C 2997.67,2103.5 2997.67,2477.5 2997,2851.5C 2990.47,2883.03 2971.3,2901.2 2939.5,2906C 2374.5,2906.67 1809.5,2906.67 1244.5,2906C 1213.56,2901.4 1194.4,2883.9 1187,2853.5C 1186.33,2478.17 1186.33,2102.83 1187,1727.5C 1194.69,1696.63 1214.19,1678.97 1245.5,1674.5 Z"/></g>
<g><path style="opacity:0.997" fill="#2d2c2b" d="M 2097.5,3544.5 C 2084.5,3544.5 2071.5,3544.5 2058.5,3544.5C 1636.87,3532.4 1265.2,3391.9 943.5,3123C 670.602,2888.24 484.102,2597.08 384,2249.5C 355.934,2147.43 336.6,2043.76 326,1938.5C 256.333,2020.83 186.667,2103.17 117,2185.5C 96.3648,2211.49 70.1981,2219.32 38.5,2209C 17.0644,2199.07 4.06443,2182.57 -0.5,2159.5C -0.5,2152.83 -0.5,2146.17 -0.5,2139.5C 1.76061,2128.57 6.26061,2118.57 13,2109.5C 122.5,1980.67 232,1851.83 341.5,1723C 358.417,1709.79 377.417,1705.46 398.5,1710C 406.34,1712.25 413.673,1715.59 420.5,1720C 546.5,1826.67 672.5,1933.33 798.5,2040C 823.397,2061.42 830.23,2087.59 819,2118.5C 804.241,2146.3 781.075,2158.47 749.5,2155C 739.202,2153.18 729.868,2149.18 721.5,2143C 632.627,2067.12 543.46,1991.62 454,1916.5C 483.534,2238.59 596.534,2526.92 793,2781.5C 1020.32,3069.24 1311.49,3262.41 1666.5,3361C 1808.71,3398.53 1953.38,3417.19 2100.5,3417C 2140.64,3426.82 2158.48,3452.32 2154,3493.5C 2146.33,3523.01 2127.49,3540.01 2097.5,3544.5 Z"/></g>
</svg>
