<?xml version="1.0" encoding="UTF-8"?>
<!DOCTYPE svg PUBLIC "-//W3C//DTD SVG 1.1//EN" "http://www.w3.org/Graphics/SVG/1.1/DTD/svg11.dtd">
<!-- Creator: CorelDRAW 2021.5 -->
<svg xmlns="http://www.w3.org/2000/svg" xml:space="preserve" width="327.31mm" height="300mm" version="1.1" style="shape-rendering:geometricPrecision; text-rendering:geometricPrecision; image-rendering:optimizeQuality; fill-rule:evenodd; clip-rule:evenodd"
viewBox="0 0 10051.4 9212.72"
 xmlns:xlink="http://www.w3.org/1999/xlink"
 xmlns:xodm="http://www.corel.com/coreldraw/odm/2003">
 <defs>
  <style type="text/css">
   <![CDATA[
    .fil0 {fill:#FFFFFF;fill-rule:nonzero}
   ]]>
  </style>
 </defs>
 <g id="Layer_x0020_1">
  <metadata id="CorelCorpID_0Corel-Layer"/>
  <path class="fil0" d="M6505.34 8871.26l2265.76 0 0 -5527.86 -2265.76 0 0 636.7 1275.71 0c94.27,0 170.73,76.45 170.73,170.73 0,94.28 -76.45,170.73 -170.73,170.73l-1275.71 0 0 636.78 1275.71 0c94.27,0 170.73,76.45 170.73,170.73 0,94.27 -76.45,170.73 -170.73,170.73l-1275.71 0 0 636.82 1275.71 0c94.27,0 170.73,76.45 170.73,170.73 0,94.27 -76.45,170.73 -170.73,170.73l-1275.71 0 0 636.78 1275.71 0c94.27,0 170.73,76.45 170.73,170.73 0,94.27 -76.45,170.73 -170.73,170.73l-1275.71 0 0 636.66 1275.71 0c94.27,0 170.73,76.45 170.73,170.73 0,94.28 -76.45,170.73 -170.73,170.73l-1275.71 0 0 636.82zm-6334.61 341.46c-94.27,0 -170.73,-76.45 -170.73,-170.73 0,-94.27 76.45,-170.73 170.73,-170.73l768.12 0 0 -7655.11c0,-94.27 76.45,-170.73 170.73,-170.73l1263.17 0 0 -874.69c0,-94.28 76.45,-170.73 170.73,-170.73l2357.29 0c94.28,0 170.73,76.45 170.73,170.73l0 874.69 1263.12 0 0 0.04 4.39 0 0 0.04 4.4 0.16 0 0.04 4.35 0.2 0 0.04 4.31 0.36 0 0.04 4.27 0.44 0 0.04 4.27 0.56 0 0.04 4.19 0.64 0 0.04 4.19 0.76 0 0.04 4.15 0.85 0 0.04 4.11 0.97 0 0.04 4.08 1.09 0 0.04 4.03 1.13 0 0.04 3.99 1.25 0 0.04 3.95 1.37 0 0.04 3.87 1.45 0 0.04 3.87 1.53 0 0.04 3.79 1.61 0 0.04 3.75 1.74 0 0.04 3.71 1.77 0 0.04 3.67 1.89 0 0.04 3.59 1.97 0 0.04 3.55 2.06 0 0.04 3.51 2.14 0 0.04 3.43 2.22 0 0.04 3.39 2.3 0 0.04 3.31 2.38 0 0.04 3.27 2.46 0 0.04 3.18 2.54 0 0.04 3.14 2.62 0 0.04 3.06 2.66 0 0.04 2.98 2.74 0 0.04 2.94 2.82 0 0.04 2.87 2.91 0 0.04 2.78 2.94 0 0.04 2.7 3.02 0 0.04 2.66 3.1 0 0.04 2.58 3.14 0 0.04 2.5 3.22 0 0.04 2.42 3.27 0 0.04 2.34 3.35 0 0.04 2.26 3.39 0 0.04 2.18 3.47 0 0.04 2.1 3.51 0 0.04 2.02 3.55 0 0.04 1.93 3.63 0 0.04 1.81 3.67 0 0.04 1.77 3.71 0 0.04 1.65 3.75 0 0.04 1.57 3.83 0 0.04 1.49 3.83 0 0.04 1.41 3.91 0 0.04 1.29 3.95 0 0.04 1.17 3.99 0 0.04 1.13 4.03 0 0.04 1.01 4.07 0 0.04 0.89 4.11 0 0.04 0.81 4.15 0 0.04 0.68 4.15 0 0.04 0.6 4.23 0 0.04 0.49 4.23 0 0.04 0.4 4.27 0 0.04 0.24 4.31 0 0.04 0.2 4.35 0 0.04 0.04 4.35 0 0.04 0 1785.75 2436.49 0c94.28,0 170.73,76.45 170.73,170.73l0 5698.59 768.11 0c94.28,0 170.73,76.45 170.73,170.73 0,94.28 -76.45,170.73 -170.73,170.73l-938.84 0 -2607.22 0 -1981.12 0 -1262.76 0 -1981.16 0 -938.84 0zm4012.04 -341.46l0 -636.86 -921.3 0 0 636.86 921.3 0zm-1262.76 0l0 -807.59c0,-94.27 76.45,-170.73 170.73,-170.73l1262.76 0c94.28,0 170.73,76.45 170.73,170.73l0 807.59 1639.66 0 0 -807.55 0 -978.12 0 -978.24 0 -978.28 0 -978.24 0 -978.16 0 -1785.79 -1258.73 0 -4.4 0.04 -2357.29 0 -4.39 -0.04 -1258.77 0 0 7484.38 1639.7 0zm-544.65 -1614.94c-94.27,0 -170.73,-76.45 -170.73,-170.73 0,-94.28 76.45,-170.73 170.73,-170.73l2693.39 0c94.27,0 170.73,76.45 170.73,170.73 0,94.27 -76.45,170.73 -170.73,170.73l-2693.39 0zm0 -978.24c-94.27,0 -170.73,-76.45 -170.73,-170.73 0,-94.28 76.45,-170.73 170.73,-170.73l2693.39 0c94.27,0 170.73,76.45 170.73,170.73 0,94.27 -76.45,170.73 -170.73,170.73l-2693.39 0zm0 -978.28c-94.27,0 -170.73,-76.45 -170.73,-170.73 0,-94.28 76.45,-170.73 170.73,-170.73l2693.39 0c94.27,0 170.73,76.45 170.73,170.73 0,94.27 -76.45,170.73 -170.73,170.73l-2693.39 0zm0 -978.24c-94.27,0 -170.73,-76.45 -170.73,-170.73 0,-94.28 76.45,-170.73 170.73,-170.73l2693.39 0c94.27,0 170.73,76.45 170.73,170.73 0,94.28 -76.45,170.73 -170.73,170.73l-2693.39 0zm0 -978.12c-94.27,0 -170.73,-76.45 -170.73,-170.73 0,-94.27 76.45,-170.73 170.73,-170.73l2693.39 0c94.27,0 170.73,76.45 170.73,170.73 0,94.28 -76.45,170.73 -170.73,170.73l-2693.39 0zm0 -978.28c-94.27,0 -170.73,-76.45 -170.73,-170.73 0,-94.27 76.45,-170.73 170.73,-170.73l2693.39 0c94.27,0 170.73,76.45 170.73,170.73 0,94.28 -76.45,170.73 -170.73,170.73l-2693.39 0zm2354.67 -1319.74l0 -703.96 -2015.84 0 0 703.96 2015.84 0z"/>
 </g>
</svg>
